<?xml version="1.0" encoding="UTF-8" standalone="no"?>
<!-- Created with Inkscape (http://www.inkscape.org/) -->

<svg
   xmlns:dc="http://purl.org/dc/elements/1.1/"
   xmlns:cc="http://creativecommons.org/ns#"
   xmlns:rdf="http://www.w3.org/1999/02/22-rdf-syntax-ns#"
   xmlns:svg="http://www.w3.org/2000/svg"
   xmlns="http://www.w3.org/2000/svg"
   xmlns:sodipodi="http://sodipodi.sourceforge.net/DTD/sodipodi-0.dtd"
   xmlns:inkscape="http://www.inkscape.org/namespaces/inkscape"
   width="64px"
   height="64px"
   id="svg3002"
   version="1.1"
   inkscape:version="0.48.4 r9939"
   sodipodi:docname="hi.svg">
  <defs
     id="defs3004" />
  <sodipodi:namedview
     id="base"
     pagecolor="#ffffff"
     bordercolor="#666666"
     borderopacity="1.0"
     inkscape:pageopacity="0.0"
     inkscape:pageshadow="2"
     inkscape:zoom="3.8890873"
     inkscape:cx="48.0495"
     inkscape:cy="35.253833"
     inkscape:current-layer="layer1"
     showgrid="true"
     inkscape:document-units="px"
     inkscape:grid-bbox="true"
     inkscape:window-width="1440"
     inkscape:window-height="873"
     inkscape:window-x="0"
     inkscape:window-y="0"
     inkscape:window-maximized="1" />
  <metadata
     id="metadata3007">
    <rdf:RDF>
      <cc:Work
         rdf:about="">
        <dc:format>image/svg+xml</dc:format>
        <dc:type
           rdf:resource="http://purl.org/dc/dcmitype/StillImage" />
        <dc:title></dc:title>
      </cc:Work>
    </rdf:RDF>
  </metadata>
  <g
     id="layer1"
     inkscape:label="Layer 1"
     inkscape:groupmode="layer">
    <path
       d="m 28.526123,9.6381451 c -1.67655,0.1275646 -3.272802,1.0151629 -3.689616,2.4649379 -2.720233,-1.262944 -4.962934,-0.255233 -5.917997,1.484565 -0.64645,1.175103 -0.43837,4.509716 -0.43837,4.509716 0,0 -0.606997,-0.516292 -2.228382,-0.448171 -4.425785,0.18375 -3.689615,5.314406 -3.689615,9.411581 l 0,62.603814 25.388939,0 0,-40.867546 c 1.817775,-0.907097 3.170877,-1.72456 4.602886,-3.361279 1.39694,-1.596383 2.569434,-3.456963 2.776345,-6.246376 0.09001,-1.189445 0.09235,-12.146092 0,-13.417104 -0.149631,-2.064273 -2.761732,-4.147819 -6.064121,-2.520959 -0.164827,-2.426395 0.347189,-5.337262 -0.146123,-7.450834 -0.195221,-0.838976 -0.608166,-2.525441 -2.666752,-2.96913 -2.058587,-0.443689 -3.080866,0.243805 -3.4339,0.448171 -0.06839,-2.726165 -2.337729,-3.8053971 -4.493294,-3.6413859 z M 29.074086,11.0947 c 1.843492,0.02958 1.950747,1.525795 2.009196,2.268862 0.123913,1.587421 0.03653,3.886312 0.03653,5.462078 l 0,7.226749 c 0,0 0.05757,0.487161 0.767148,0.504192 0.708406,0.01524 0.87674,-0.504192 0.87674,-0.504192 0,0 0.146124,-3.372482 0.146124,-5.322024 0,-2.636138 -0.464965,-6.520433 2.228381,-6.442451 2.693347,0.07798 2.264913,2.643535 2.264913,5.069929 l 0,12.324688 c 0.03975,0.282348 0.08095,0.525032 0.767148,0.532203 0.686195,0.0081 0.858036,-0.293776 0.87674,-0.532203 0.01987,-0.24022 0.09761,-4.538623 0.219185,-5.99428 0.06546,-0.772646 1.266598,-1.505405 2.411036,-1.400532 0.877909,0.07977 1.733316,0.428674 2.009197,1.148436 0.24198,0.628335 0.268282,3.629284 0.219185,6.722557 -0.01286,0.831805 0.129757,4.849878 -0.292247,7.590888 -0.293416,1.90831 -1.019065,3.438364 -2.009197,4.593748 -2.617362,3.048455 -3.969295,3.051816 -5.041257,3.669396 l -0.03653,9.131473 0,11.932539 0,5.322025 0,14.201402 -22.356878,0 0,-0.02801 0,-14.173392 0,-22.856695 0,-11.064209 0,-5.490088 c -0.01869,-4.934837 -0.03653,-10.84616 -0.03653,-11.456358 0,-1.820468 -0.265945,-4.521816 1.972666,-4.67778 2.23861,-0.155963 2.411036,1.540586 2.411036,1.540586 l 0.109592,7.030675 c 0,0 0.09673,0.476181 0.84021,0.476181 0.742307,0 0.803678,-0.476181 0.803678,-0.476181 0,0 0.109593,-6.867318 0.109593,-10.2519 0,-2.133291 -0.372322,-4.249329 2.118789,-4.229609 2.161457,0.01793 2.324239,1.310898 2.374505,3.081172 0.03507,1.226195 0,2.629416 0,3.86547 l 0,6.162344 c 0,0 0.173887,0.476182 0.84021,0.476182 0.662815,0 0.803678,-0.476182 0.803678,-0.476182 0,0 0.03127,-8.973044 0.109593,-13.529146 0.111054,-0.795951 0.835533,-1.454537 2.447567,-1.428543 z"
       id="path4-4"
       inkscape:connector-curvature="0"
       style="fill:#ffffff" />
  </g>
</svg>
