<?xml version="1.0" encoding="UTF-8" standalone="no"?>
<svg
   xmlns:dc="http://purl.org/dc/elements/1.1/"
   xmlns:cc="http://creativecommons.org/ns#"
   xmlns:rdf="http://www.w3.org/1999/02/22-rdf-syntax-ns#"
   xmlns:svg="http://www.w3.org/2000/svg"
   xmlns="http://www.w3.org/2000/svg"
   xmlns:sodipodi="http://sodipodi.sourceforge.net/DTD/sodipodi-0.dtd"
   xmlns:inkscape="http://www.inkscape.org/namespaces/inkscape"
   version="1.1"
   id="Layer_1"
   width="28.584"
   height="28.584"
   viewBox="0 0 28.584 28.584"
   overflow="visible"
   enable-background="new 0 0 28.584 28.584"
   xml:space="preserve"
   inkscape:version="0.48.4 r9939"
   sodipodi:docname="linkedin.svg"><metadata
     id="metadata24525"><rdf:RDF><cc:Work
         rdf:about=""><dc:format>image/svg+xml</dc:format><dc:type
           rdf:resource="http://purl.org/dc/dcmitype/StillImage" /></cc:Work></rdf:RDF></metadata><defs
     id="defs24523" /><sodipodi:namedview
     pagecolor="#ffffff"
     bordercolor="#666666"
     borderopacity="1"
     objecttolerance="10"
     gridtolerance="10"
     guidetolerance="10"
     inkscape:pageopacity="0"
     inkscape:pageshadow="2"
     inkscape:window-width="1280"
     inkscape:window-height="748"
     id="namedview24521"
     showgrid="false"
     inkscape:zoom="8.2563673"
     inkscape:cx="23.981491"
     inkscape:cy="19.136746"
     inkscape:window-x="0"
     inkscape:window-y="0"
     inkscape:window-maximized="1"
     inkscape:current-layer="g24507" /><g
     id="g24507"><path
       d="M 14.292,0 C 6.399,0 0,6.398 0,14.292 c 0,7.893 6.399,14.292 14.292,14.292 7.893,0 14.292,-6.399 14.292,-14.292 C 28.584,6.398 22.185,0 14.292,0 z m -0.0069,27.952186 c -7.5318957,0 -13.63928344,-6.102997 -13.63928344,-13.637089 0,-7.5318957 6.10629024,-13.63928344 13.63928344,-13.63928344 7.529702,0 13.637089,6.10629024 13.637089,13.63928344 0,7.534092 -6.107387,13.637089 -13.637089,13.637089 z"
       id="path24511"
       inkscape:connector-curvature="0"
       style="fill:#47dbb4"
       sodipodi:nodetypes="ssssssssss" /></g><g
     id="g24513"><rect
       style="fill:#47dbb4"
       id="rect24515"
       height="9.7130003"
       width="2.99"
       y="10.61"
       x="8.3459997" /><path
       style="fill:#47dbb4"
       inkscape:connector-curvature="0"
       id="path24517"
       d="m 9.84,9.863 c -0.827,0 -1.494,-0.669 -1.494,-1.495 0,-0.824 0.667,-1.494 1.494,-1.494 0.827,0 1.496,0.67 1.496,1.494 0,0.826 -0.669,1.495 -1.496,1.495" /><path
       style="fill:#47dbb4"
       inkscape:connector-curvature="0"
       id="path24519"
       d="m 21.795,20.323 h -2.988 v -5.604 c 0,-0.298 -0.303,-0.786 -0.513,-0.903 -0.279,-0.159 -0.943,-0.174 -1.244,-0.027 l -1.232,0.591 v 5.944 H 12.83 V 10.61 h 2.988 v 0.459 c 1.184,-0.538 2.825,-0.488 3.937,0.139 1.183,0.661 2.041,2.139 2.041,3.511 v 5.604 z" /></g></svg>