<?xml version="1.0" encoding="UTF-8" standalone="no"?>
<!-- Created with Inkscape (http://www.inkscape.org/) -->

<svg
   xmlns:dc="http://purl.org/dc/elements/1.1/"
   xmlns:cc="http://creativecommons.org/ns#"
   xmlns:rdf="http://www.w3.org/1999/02/22-rdf-syntax-ns#"
   xmlns:svg="http://www.w3.org/2000/svg"
   xmlns="http://www.w3.org/2000/svg"
   xmlns:sodipodi="http://sodipodi.sourceforge.net/DTD/sodipodi-0.dtd"
   xmlns:inkscape="http://www.inkscape.org/namespaces/inkscape"
   width="64px"
   height="64px"
   id="svg5557"
   version="1.1"
   inkscape:version="0.48.4 r9939"
   sodipodi:docname="New document 3">
  <defs
     id="defs5559" />
  <sodipodi:namedview
     id="base"
     pagecolor="#ffffff"
     bordercolor="#666666"
     borderopacity="1.0"
     inkscape:pageopacity="0.0"
     inkscape:pageshadow="2"
     inkscape:zoom="8"
     inkscape:cx="37.11501"
     inkscape:cy="30.377645"
     inkscape:current-layer="layer1"
     showgrid="true"
     inkscape:document-units="px"
     inkscape:grid-bbox="true"
     inkscape:window-width="1280"
     inkscape:window-height="748"
     inkscape:window-x="0"
     inkscape:window-y="0"
     inkscape:window-maximized="1" />
  <metadata
     id="metadata5562">
    <rdf:RDF>
      <cc:Work
         rdf:about="">
        <dc:format>image/svg+xml</dc:format>
        <dc:type
           rdf:resource="http://purl.org/dc/dcmitype/StillImage" />
        <dc:title></dc:title>
      </cc:Work>
    </rdf:RDF>
  </metadata>
  <g
     id="layer1"
     inkscape:label="Layer 1"
     inkscape:groupmode="layer">
    <path
       style="font-size:135.59854126px;font-style:normal;font-variant:normal;font-weight:bold;font-stretch:normal;text-align:start;line-height:125%;letter-spacing:0px;word-spacing:0px;writing-mode:lr-tb;text-anchor:start;fill:#000000;fill-opacity:1;stroke:none;font-family:Playfair Display;-inkscape-font-specification:Playfair Display Bold"
       d="M 2 10.21875 L 2.03125 10.40625 L 2.0625 10.90625 C 2.3421472 14.900796 2.46875 18.304517 2.46875 21.03125 C 2.46875 22.821852 2.3923944 24.428891 2.25 25.8125 L 3.6875 25.8125 C 4.3996566 22.31275 5.2529624 19.5457 6.25 17.53125 C 7.2470377 15.496563 8.4601407 14.031222 9.84375 13.15625 C 11.247689 12.281324 12.954346 11.843796 14.96875 11.84375 L 16.34375 11.84375 L 16.34375 47.5625 C 16.343704 49.292023 16.158414 50.550232 15.8125 51.34375 C 15.466586 52.137314 14.821833 52.683869 13.90625 52.96875 C 13.010949 53.253585 11.609621 53.38597 9.65625 53.40625 L 9.65625 54 L 9.65625 54.6875 L 32.96875 54.6875 L 50.5 54.6875 C 50.511904 54.687783 50.519332 54.687216 50.53125 54.6875 L 50.53125 53.3125 C 48.577879 53.292171 47.134334 53.139506 46.21875 52.875 C 45.323449 52.610448 44.689664 52.096611 44.34375 51.34375 C 43.997836 50.570561 43.843704 49.35599 43.84375 47.6875 L 43.84375 33.3125 L 46.03125 33.3125 C 50.243157 33.3125 52.770402 36.06872 53.625 41.5625 L 55.09375 41.5625 C 54.829243 37.818572 54.687454 34.833424 54.6875 32.65625 L 54.65625 29.6875 C 54.656204 27.815537 54.732513 25.836358 54.875 23.78125 L 53.4375 23.78125 C 52.989804 26.019502 52.201933 27.976884 51.0625 29.625 C 49.923022 31.252786 48.249081 32.0625 46.03125 32.0625 L 43.84375 32.0625 L 43.84375 16.3125 C 43.843704 14.969594 43.921481 13.996387 44.125 13.40625 C 44.328428 12.795876 44.742738 12.39102 45.3125 12.1875 C 45.902545 11.963744 46.822753 11.843796 48.125 11.84375 L 50.21875 11.84375 C 52.21278 11.843796 53.886673 12.248652 55.25 13.0625 C 56.633609 13.85611 57.782699 15.190582 58.71875 17.0625 C 59.654663 18.934463 60.419317 21.461756 60.96875 24.65625 L 62.40625 24.65625 C 62.284135 23.455786 62.218704 21.879997 62.21875 19.90625 C 62.218704 17.139032 62.340073 13.967079 62.625 10.40625 L 62.65625 10.21875 L 2 10.21875 z M 26.28125 11.84375 L 27.71875 11.84375 C 29.712779 11.843796 31.397594 12.292245 32.78125 13.1875 C 33.050724 13.355444 33.308015 13.570581 33.5625 13.78125 C 33.777443 14.498979 33.875 15.56131 33.875 17.03125 L 33.875 48.0625 C 33.875 49.629254 33.775427 50.756593 33.53125 51.46875 C 33.307402 52.180906 32.880749 52.672994 32.25 52.9375 C 31.862085 53.100162 31.297609 53.195538 30.625 53.28125 C 29.835441 53.204556 29.181234 53.122341 28.6875 52.96875 C 27.792199 52.683869 27.178743 52.137314 26.8125 51.34375 C 26.46654 50.550232 26.28125 49.292023 26.28125 47.5625 L 26.28125 11.84375 z "
       id="path5858-1" />
  </g>
</svg>
