<?xml version="1.0" encoding="UTF-8" standalone="no"?>
<svg
   xmlns:dc="http://purl.org/dc/elements/1.1/"
   xmlns:cc="http://creativecommons.org/ns#"
   xmlns:rdf="http://www.w3.org/1999/02/22-rdf-syntax-ns#"
   xmlns:svg="http://www.w3.org/2000/svg"
   xmlns="http://www.w3.org/2000/svg"
   xmlns:sodipodi="http://sodipodi.sourceforge.net/DTD/sodipodi-0.dtd"
   xmlns:inkscape="http://www.inkscape.org/namespaces/inkscape"
   version="1.1"
   id="Layer_1"
   width="28.85"
   height="28.848"
   viewBox="0 0 28.85 28.848"
   overflow="visible"
   enable-background="new 0 0 28.85 28.848"
   xml:space="preserve"
   inkscape:version="0.48.4 r9939"
   sodipodi:docname="twitter.svg"><metadata
     id="metadata24542"><rdf:RDF><cc:Work
         rdf:about=""><dc:format>image/svg+xml</dc:format><dc:type
           rdf:resource="http://purl.org/dc/dcmitype/StillImage" /></cc:Work></rdf:RDF></metadata><defs
     id="defs24540" /><sodipodi:namedview
     pagecolor="#ffffff"
     bordercolor="#666666"
     borderopacity="1"
     objecttolerance="10"
     gridtolerance="10"
     guidetolerance="10"
     inkscape:pageopacity="0"
     inkscape:pageshadow="2"
     inkscape:window-width="1280"
     inkscape:window-height="748"
     id="namedview24538"
     showgrid="false"
     inkscape:zoom="11.569412"
     inkscape:cx="28.637724"
     inkscape:cy="11.845869"
     inkscape:window-x="0"
     inkscape:window-y="0"
     inkscape:window-maximized="1"
     inkscape:current-layer="Layer_1" /><path
     d="M 14.423999,0.13200003 C 6.5309994,0.13200003 0.13199942,6.53 0.13199942,14.424 c 0,7.893 6.39899998,14.292 14.29199958,14.292 7.893,0 14.292,-6.399 14.292,-14.292 0,-7.894 -6.399,-14.29199997 -14.292,-14.29199997 z m -0.0069,27.95218597 c -7.5318956,0 -13.63928308,-6.102997 -13.63928308,-13.637089 0,-7.531896 6.10629048,-13.63928297 13.63928308,-13.63928297 7.529702,0 13.637089,6.10628997 13.637089,13.63928297 0,7.534092 -6.107387,13.637089 -13.637089,13.637089 z"
     id="path24511"
     inkscape:connector-curvature="0"
     style="fill:#47dbb4"
     sodipodi:nodetypes="ssssssssss" /><g
     id="g24724"
     transform="matrix(0.05228442,0,0,-0.05228442,20.641943,15.453799)"
     style="fill:#47dbb4;fill-opacity:1"><path
       d="M 0,0 -31.18,20.858 0,41.715 0,0 z m -107.633,-88.412 0,58.133 54.035,36.138 43.619,-29.172 -97.654,-65.099 z m -12.462,79.784 -44.084,29.486 44.084,29.486 44.08,-29.486 -44.08,-29.486 z m -12.466,-79.784 -97.655,65.099 43.623,29.172 54.032,-36.138 0,-58.133 z M -240.194,41.715 -209.011,20.858 -240.194,0 l 0,41.715 z m 107.633,88.413 0,-58.133 -54.032,-36.146 -43.623,29.181 97.655,65.098 z m 24.928,0 97.654,-65.098 -43.619,-29.181 -54.035,36.146 0,58.133 z M 24.817,66.67 c -0.026,0.183 -0.072,0.358 -0.102,0.541 -0.062,0.352 -0.126,0.703 -0.218,1.046 -0.054,0.206 -0.13,0.404 -0.194,0.602 -0.1,0.306 -0.199,0.611 -0.321,0.908 -0.085,0.206 -0.183,0.412 -0.278,0.61 -0.131,0.283 -0.267,0.558 -0.424,0.824 -0.114,0.199 -0.236,0.39 -0.354,0.58 -0.168,0.26 -0.34,0.512 -0.528,0.756 -0.136,0.183 -0.281,0.366 -0.426,0.542 -0.199,0.228 -0.405,0.457 -0.622,0.671 -0.163,0.167 -0.325,0.335 -0.496,0.488 -0.229,0.206 -0.465,0.405 -0.706,0.595 -0.186,0.145 -0.37,0.29 -0.564,0.427 -0.073,0.046 -0.137,0.107 -0.206,0.153 l -132.562,88.374 c -4.187,2.792 -9.639,2.792 -13.827,0 L -259.572,75.413 c -0.069,-0.046 -0.134,-0.107 -0.206,-0.153 -0.195,-0.137 -0.378,-0.282 -0.561,-0.427 -0.244,-0.19 -0.481,-0.389 -0.705,-0.595 -0.176,-0.153 -0.336,-0.321 -0.5,-0.488 -0.217,-0.214 -0.423,-0.443 -0.618,-0.671 -0.149,-0.176 -0.294,-0.359 -0.431,-0.542 -0.183,-0.244 -0.359,-0.496 -0.523,-0.756 -0.126,-0.19 -0.244,-0.381 -0.358,-0.58 -0.153,-0.266 -0.29,-0.541 -0.424,-0.824 -0.095,-0.198 -0.194,-0.404 -0.278,-0.61 -0.122,-0.297 -0.221,-0.602 -0.321,-0.908 -0.065,-0.198 -0.137,-0.396 -0.194,-0.602 -0.092,-0.343 -0.153,-0.694 -0.218,-1.046 -0.03,-0.183 -0.076,-0.358 -0.099,-0.541 -0.073,-0.534 -0.114,-1.076 -0.114,-1.625 l 0,-88.374 c 0,-0.549 0.041,-1.091 0.114,-1.633 0.023,-0.176 0.069,-0.358 0.099,-0.533 0.065,-0.352 0.126,-0.702 0.218,-1.046 0.057,-0.206 0.129,-0.404 0.194,-0.603 0.1,-0.304 0.199,-0.61 0.321,-0.915 0.084,-0.207 0.183,-0.405 0.278,-0.603 0.134,-0.281 0.271,-0.556 0.424,-0.831 0.114,-0.192 0.232,-0.381 0.358,-0.572 0.164,-0.26 0.34,-0.512 0.523,-0.756 0.137,-0.191 0.282,-0.366 0.431,-0.541 0.195,-0.229 0.401,-0.458 0.618,-0.672 0.164,-0.167 0.324,-0.335 0.5,-0.487 0.224,-0.208 0.461,-0.406 0.705,-0.596 0.183,-0.146 0.366,-0.29 0.561,-0.427 0.072,-0.046 0.137,-0.107 0.206,-0.152 l 132.561,-88.375 c 2.094,-1.396 4.505,-2.098 6.916,-2.098 2.407,0 4.817,0.702 6.911,2.098 l 132.562,88.375 c 0.069,0.045 0.133,0.106 0.206,0.152 0.194,0.137 0.378,0.281 0.564,0.427 0.241,0.19 0.477,0.388 0.706,0.596 0.171,0.152 0.333,0.32 0.496,0.487 0.217,0.214 0.423,0.443 0.622,0.672 0.145,0.175 0.29,0.35 0.426,0.541 0.188,0.244 0.36,0.496 0.528,0.756 0.118,0.191 0.24,0.38 0.354,0.572 0.157,0.275 0.293,0.55 0.424,0.831 0.095,0.198 0.193,0.396 0.278,0.603 0.122,0.305 0.221,0.611 0.321,0.915 0.064,0.199 0.14,0.397 0.194,0.603 0.092,0.344 0.156,0.694 0.218,1.046 0.03,0.175 0.076,0.357 0.102,0.533 0.069,0.542 0.112,1.084 0.112,1.633 l 0,88.374 c 0,0.549 -0.043,1.091 -0.112,1.625"
       style="fill:#47dbb4;fill-opacity:1;fill-rule:nonzero;stroke:none"
       id="path24726"
       inkscape:connector-curvature="0" /></g></svg>