<?xml version="1.0" encoding="UTF-8" standalone="no"?>
<!-- Created with Inkscape (http://www.inkscape.org/) -->

<svg
   xmlns:dc="http://purl.org/dc/elements/1.1/"
   xmlns:cc="http://creativecommons.org/ns#"
   xmlns:rdf="http://www.w3.org/1999/02/22-rdf-syntax-ns#"
   xmlns:svg="http://www.w3.org/2000/svg"
   xmlns="http://www.w3.org/2000/svg"
   xmlns:sodipodi="http://sodipodi.sourceforge.net/DTD/sodipodi-0.dtd"
   xmlns:inkscape="http://www.inkscape.org/namespaces/inkscape"
   width="64px"
   height="64px"
   id="svg18692"
   version="1.1"
   inkscape:version="0.48.4 r9939"
   sodipodi:docname="bulb.svg">
  <defs
     id="defs18694" />
  <sodipodi:namedview
     id="base"
     pagecolor="#ffffff"
     bordercolor="#666666"
     borderopacity="1.0"
     inkscape:pageopacity="0.0"
     inkscape:pageshadow="2"
     inkscape:zoom="3.8890873"
     inkscape:cx="18.505571"
     inkscape:cy="13.64602"
     inkscape:current-layer="layer1"
     showgrid="true"
     inkscape:document-units="px"
     inkscape:grid-bbox="true"
     inkscape:window-width="1280"
     inkscape:window-height="748"
     inkscape:window-x="0"
     inkscape:window-y="0"
     inkscape:window-maximized="1" />
  <metadata
     id="metadata18697">
    <rdf:RDF>
      <cc:Work
         rdf:about="">
        <dc:format>image/svg+xml</dc:format>
        <dc:type
           rdf:resource="http://purl.org/dc/dcmitype/StillImage" />
        <dc:title />
      </cc:Work>
    </rdf:RDF>
  </metadata>
  <g
     id="layer1"
     inkscape:label="Layer 1"
     inkscape:groupmode="layer">
    <path
       style="font-size:medium;font-style:normal;font-variant:normal;font-weight:normal;font-stretch:normal;text-indent:0;text-align:start;text-decoration:none;line-height:normal;letter-spacing:normal;word-spacing:normal;text-transform:none;direction:ltr;block-progression:tb;writing-mode:lr-tb;text-anchor:start;baseline-shift:baseline;color:#000000;fill:#010101;fill-opacity:1;stroke:none;stroke-width:1.75395763;marker:none;visibility:visible;display:inline;overflow:visible;enable-background:accumulate;font-family:Sans;-inkscape-font-specification:Sans"
       d="m 32.75,5.09375 c -10.645153,0 -19.28125,8.636098 -19.28125,19.28125 0,6.751063 3.514292,12.733359 8.78125,16.1875 l 0,4 0,0.875 0.875,0 19.28125,0 0.875,0 0,-0.875 0,-4.09375 C 48.539976,37.022296 52.0625,31.126952 52.0625,24.375 52.0625,13.729847 43.395153,5.09375 32.75,5.09375 z m 0,1.75 c 9.697247,0 17.5625,7.834003 17.5625,17.53125 0,6.32521 -3.365365,11.849701 -8.375,14.9375 l -0.40625,0.28125 0,0.46875 0,3.59375 -17.53125,0 0,-3.5 0,-0.875 -0.59375,0 c -4.910643,-3.105005 -8.1875,-8.654146 -8.1875,-14.90625 0,-9.697248 7.834003,-17.53125 17.53125,-17.53125 z"
       id="path5210"
       inkscape:connector-curvature="0" />
    <path
       style="font-size:medium;font-style:normal;font-variant:normal;font-weight:normal;font-stretch:normal;text-indent:0;text-align:start;text-decoration:none;line-height:normal;letter-spacing:normal;word-spacing:normal;text-transform:none;direction:ltr;block-progression:tb;writing-mode:lr-tb;text-anchor:start;baseline-shift:baseline;color:#000000;fill:#010101;fill-opacity:1;stroke:none;stroke-width:1.75395763;marker:none;visibility:visible;display:inline;overflow:visible;enable-background:accumulate;font-family:Sans;-inkscape-font-specification:Sans"
       d="m 27.5,26.875 -1.75,0.25 2.625,17.5625 1.75,-0.28125 L 27.5,26.875 z"
       id="line5212"
       inkscape:connector-curvature="0" />
    <path
       style="font-size:medium;font-style:normal;font-variant:normal;font-weight:normal;font-stretch:normal;text-indent:0;text-align:start;text-decoration:none;line-height:normal;letter-spacing:normal;word-spacing:normal;text-transform:none;direction:ltr;block-progression:tb;writing-mode:lr-tb;text-anchor:start;baseline-shift:baseline;color:#000000;fill:#010101;fill-opacity:1;stroke:none;stroke-width:1.75395763;marker:none;visibility:visible;display:inline;overflow:visible;enable-background:accumulate;font-family:Sans;-inkscape-font-specification:Sans"
       d="m 38.03125,26.875 -2.625,17.53125 1.71875,0.28125 2.65625,-17.5625 -1.75,-0.25 z"
       id="line5214"
       inkscape:connector-curvature="0" />
    <path
       style="font-size:medium;font-style:normal;font-variant:normal;font-weight:normal;font-stretch:normal;text-indent:0;text-align:start;text-decoration:none;line-height:normal;letter-spacing:normal;word-spacing:normal;text-transform:none;direction:ltr;block-progression:tb;writing-mode:lr-tb;text-anchor:start;baseline-shift:baseline;color:#000000;fill:#010101;fill-opacity:1;stroke:none;stroke-width:2;marker:none;visibility:visible;display:inline;overflow:visible;enable-background:accumulate;font-family:Sans;-inkscape-font-specification:Sans"
       d="m 32.763731,26.635688 -0.630328,0.630284 -2.082825,2.082825 -2.904992,-2.164997 -1.041413,1.397641 3.507916,2.630936 0.602922,0.465939 0.548112,-0.548112 2.000608,-2.000652 2.000608,2.000652 0.548112,0.548112 0.602923,-0.465939 3.507915,-2.630936 -1.041412,-1.397641 -2.904993,2.164997 -2.082824,-2.082825 -0.630329,-0.630284 z"
       id="polyline5216"
       inkscape:connector-curvature="0" />
    <path
       style="font-size:medium;font-style:normal;font-variant:normal;font-weight:normal;font-stretch:normal;text-indent:0;text-align:start;text-decoration:none;line-height:normal;letter-spacing:normal;word-spacing:normal;text-transform:none;direction:ltr;block-progression:tb;writing-mode:lr-tb;text-anchor:start;baseline-shift:baseline;color:#000000;fill:#010101;fill-opacity:1;stroke:none;stroke-width:1.75395763;marker:none;visibility:visible;display:inline;overflow:visible;enable-background:accumulate;font-family:Sans;-inkscape-font-specification:Sans"
       d="m 22.25,43.65625 0,0.90625 0,5.25 0,0.875 0.875,0 19.28125,0 0.875,0 0,-0.875 0,-5.25 0,-0.90625 -0.875,0 -19.28125,0 -0.875,0 z m 1.75,1.78125 17.53125,0 0,3.5 -17.53125,0 0,-3.5 z"
       id="rect5218"
       inkscape:connector-curvature="0" />
    <path
       style="font-size:medium;font-style:normal;font-variant:normal;font-weight:normal;font-stretch:normal;text-indent:0;text-align:start;text-decoration:none;line-height:normal;letter-spacing:normal;word-spacing:normal;text-transform:none;direction:ltr;block-progression:tb;writing-mode:lr-tb;text-anchor:start;baseline-shift:baseline;color:#000000;fill:#010101;fill-opacity:1;stroke:none;stroke-width:1.75395763;marker:none;visibility:visible;display:inline;overflow:visible;enable-background:accumulate;font-family:Sans;-inkscape-font-specification:Sans"
       d="m 24,48.9375 0,0.875 0,5.25 0,0.875 0.875,0 15.78125,0 0.875,0 0,-0.875 0,-5.25 0,-0.875 -0.875,0 -15.78125,0 -0.875,0 z m 1.75,1.75 14.03125,0 0,3.5 -14.03125,0 0,-3.5 z"
       id="rect5220"
       inkscape:connector-curvature="0" />
    <path
       style="font-size:medium;font-style:normal;font-variant:normal;font-weight:normal;font-stretch:normal;text-indent:0;text-align:start;text-decoration:none;line-height:normal;letter-spacing:normal;word-spacing:normal;text-transform:none;direction:ltr;block-progression:tb;writing-mode:lr-tb;text-anchor:start;baseline-shift:baseline;color:#000000;fill:#010101;fill-opacity:1;stroke:none;stroke-width:1.75395763;marker:none;visibility:visible;display:inline;overflow:visible;enable-background:accumulate;font-family:Sans;-inkscape-font-specification:Sans"
       d="m 25.75,54.1875 0,0.875 0,5.28125 0,0.875 0.875,0 12.28125,0 0.875,0 0,-0.875 0,-5.28125 0,-0.875 -0.875,0 -12.28125,0 -0.875,0 z m 1.75,1.75 10.53125,0 0,3.53125 -10.53125,0 0,-3.53125 z"
       id="rect5222"
       inkscape:connector-curvature="0" />
  </g>
</svg>
