<?xml version="1.0" encoding="UTF-8" standalone="no"?>
<!-- Created with Inkscape (http://www.inkscape.org/) -->

<svg
   xmlns:dc="http://purl.org/dc/elements/1.1/"
   xmlns:cc="http://creativecommons.org/ns#"
   xmlns:rdf="http://www.w3.org/1999/02/22-rdf-syntax-ns#"
   xmlns:svg="http://www.w3.org/2000/svg"
   xmlns="http://www.w3.org/2000/svg"
   xmlns:sodipodi="http://sodipodi.sourceforge.net/DTD/sodipodi-0.dtd"
   xmlns:inkscape="http://www.inkscape.org/namespaces/inkscape"
   width="64px"
   height="64px"
   id="svg18692"
   version="1.1"
   inkscape:version="0.48.4 r9939"
   sodipodi:docname="cards.svg">
  <defs
     id="defs18694" />
  <sodipodi:namedview
     id="base"
     pagecolor="#ffffff"
     bordercolor="#666666"
     borderopacity="1.0"
     inkscape:pageopacity="0.0"
     inkscape:pageshadow="2"
     inkscape:zoom="1.9445436"
     inkscape:cx="-7.2625581"
     inkscape:cy="6.0962367"
     inkscape:current-layer="layer1"
     showgrid="true"
     inkscape:document-units="px"
     inkscape:grid-bbox="true"
     inkscape:window-width="1280"
     inkscape:window-height="748"
     inkscape:window-x="0"
     inkscape:window-y="0"
     inkscape:window-maximized="1" />
  <metadata
     id="metadata18697">
    <rdf:RDF>
      <cc:Work
         rdf:about="">
        <dc:format>image/svg+xml</dc:format>
        <dc:type
           rdf:resource="http://purl.org/dc/dcmitype/StillImage" />
        <dc:title />
      </cc:Work>
    </rdf:RDF>
  </metadata>
  <g
     id="layer1"
     inkscape:label="Layer 1"
     inkscape:groupmode="layer">
    <path
       style="font-size:medium;font-style:normal;font-variant:normal;font-weight:normal;font-stretch:normal;text-indent:0;text-align:start;text-decoration:none;line-height:normal;letter-spacing:normal;word-spacing:normal;text-transform:none;direction:ltr;block-progression:tb;writing-mode:lr-tb;text-anchor:start;baseline-shift:baseline;color:#000000;fill:#010101;fill-opacity:1;stroke:none;stroke-width:2;marker:none;visibility:visible;display:inline;overflow:visible;enable-background:accumulate;font-family:Sans;-inkscape-font-specification:Sans"
       d="M 34.800106,6.5784348 34.41634,7.3731969 16.876763,42.45235 l -0.41104,0.794762 0.794806,0.383678 24.555407,12.277703 0.794719,0.411084 L 42.994333,55.49741 59.65693,20.418257 60.013247,19.6509 59.273252,19.267222 35.594824,6.9895186 34.800106,6.5784348 z M 35.594824,8.962721 57.711177,20.418257 41.788487,53.935291 18.822604,42.45235 35.594824,8.962721 z"
       id="polygon4828"
       inkscape:connector-curvature="0" />
    <path
       style="font-size:medium;font-style:normal;font-variant:normal;font-weight:normal;font-stretch:normal;text-indent:0;text-align:start;text-decoration:none;line-height:normal;letter-spacing:normal;word-spacing:normal;text-transform:none;direction:ltr;block-progression:tb;writing-mode:lr-tb;text-anchor:start;baseline-shift:baseline;color:#000000;fill:#010101;fill-opacity:1;stroke:none;stroke-width:2;marker:none;visibility:visible;display:inline;overflow:visible;enable-background:accumulate;font-family:Sans;-inkscape-font-specification:Sans"
       d="M 28.578993,7.4554136 27.784275,7.8664975 4.1058471,20.144201 3.3384906,20.527879 3.6947194,21.295236 19.480338,55.49741 19.864016,56.292172 20.658822,55.935899 32.059547,50.619215 31.319552,49.029691 20.713546,53.990102 5.64056,21.322641 27.784275,9.8396998 30.798802,16.060768 32.388414,15.293412 28.962672,8.2775813 28.578993,7.4554136 z"
       id="polyline4830"
       inkscape:connector-curvature="0" />
    <path
       style="font-size:medium;font-style:normal;font-variant:normal;font-weight:normal;font-stretch:normal;text-indent:0;text-align:start;text-decoration:none;line-height:normal;letter-spacing:normal;word-spacing:normal;text-transform:none;direction:ltr;block-progression:tb;writing-mode:lr-tb;text-anchor:start;baseline-shift:baseline;color:#000000;fill:#010101;fill-opacity:1;stroke:none;stroke-width:1.75395763;marker:none;visibility:visible;display:inline;overflow:visible;enable-background:accumulate;font-family:Sans;-inkscape-font-specification:Sans"
       d="m 36.15625,10.875 -0.875,1.78125 1.5625,0.78125 0.875,-1.75 -1.5625,-0.8125 z"
       id="line4832"
       inkscape:connector-curvature="0" />
    <path
       style="font-size:medium;font-style:normal;font-variant:normal;font-weight:normal;font-stretch:normal;text-indent:0;text-align:start;text-decoration:none;line-height:normal;letter-spacing:normal;word-spacing:normal;text-transform:none;direction:ltr;block-progression:tb;writing-mode:lr-tb;text-anchor:start;baseline-shift:baseline;color:#000000;fill:#010101;fill-opacity:1;stroke:none;stroke-width:1.75395763;marker:none;visibility:visible;display:inline;overflow:visible;enable-background:accumulate;font-family:Sans;-inkscape-font-specification:Sans"
       d="m 9.65625,21.40625 -1.5625,0.78125 0.875,1.75 1.5625,-0.78125 -0.875,-1.75 z"
       id="line4834"
       inkscape:connector-curvature="0" />
    <path
       style="font-size:medium;font-style:normal;font-variant:normal;font-weight:normal;font-stretch:normal;text-indent:0;text-align:start;text-decoration:none;line-height:normal;letter-spacing:normal;word-spacing:normal;text-transform:none;direction:ltr;block-progression:tb;writing-mode:lr-tb;text-anchor:start;baseline-shift:baseline;color:#000000;fill:#010101;fill-opacity:1;stroke:none;stroke-width:1.75395763;marker:none;visibility:visible;display:inline;overflow:visible;enable-background:accumulate;font-family:Sans;-inkscape-font-specification:Sans"
       d="m 40.53125,49.46875 -0.875,1.75 L 41.25,52 42.125,50.25 40.53125,49.46875 z"
       id="line4836"
       inkscape:connector-curvature="0" />
    <path
       style="font-size:medium;font-style:normal;font-variant:normal;font-weight:normal;font-stretch:normal;text-indent:0;text-align:start;text-decoration:none;line-height:normal;letter-spacing:normal;word-spacing:normal;text-transform:none;direction:ltr;block-progression:tb;writing-mode:lr-tb;text-anchor:start;baseline-shift:baseline;color:#000000;fill:#010101;fill-opacity:1;stroke:none;stroke-width:1.75395763;marker:none;visibility:visible;display:inline;overflow:visible;enable-background:accumulate;font-family:Sans;-inkscape-font-specification:Sans"
       d="m 37.0625,22.21875 c -0.704041,-0.04568 -1.395735,0.05254 -2.0625,0.25 -1.333531,0.394927 -2.56064,1.218238 -3.21875,2.4375 -1.474544,2.734215 -0.659666,6.196715 0.34375,9 1.003416,2.803285 2.3125,5 2.3125,5 l 0.25,0.4375 0.46875,0 c 0,0 2.544546,0.06843 5.40625,-0.46875 2.861704,-0.537181 6.207614,-1.633836 7.6875,-4.375 0.601292,-1.114944 0.915744,-2.489746 0.8125,-3.84375 -0.103244,-1.354004 -0.715069,-2.77385 -2.0625,-3.5 -1.137124,-0.613254 -2.521577,-0.876278 -3.875,-0.75 -0.503632,0.04699 -0.994568,0.21931 -1.46875,0.40625 -0.110745,-1.638687 -0.994522,-3.202488 -2.53125,-4.03125 -0.644511,-0.347628 -1.358459,-0.516822 -2.0625,-0.5625 z m -0.125,1.75 c 0.480429,0.03059 0.946846,0.160923 1.34375,0.375 1.536763,0.82878 2.204135,2.583024 1.40625,4.0625 l 0.78125,0.40625 0.75,0.4375 c 0.338765,-0.628154 1.084913,-1.002538 2.0625,-1.09375 0.977587,-0.09121 2.124544,0.140924 2.90625,0.5625 0.737149,0.39726 1.052191,1.107639 1.125,2.0625 0.07281,0.954861 -0.191462,2.071113 -0.625,2.875 -1.019504,1.888407 -3.816446,3.002126 -6.46875,3.5 -2.387649,0.448194 -4.093656,0.410892 -4.5,0.40625 -0.200917,-0.343305 -1.121303,-1.851204 -1.96875,-4.21875 -0.936459,-2.616223 -1.429346,-5.727895 -0.40625,-7.625 0.3776,-0.699568 1.199991,-1.310552 2.15625,-1.59375 0.47813,-0.141599 0.957071,-0.186841 1.4375,-0.15625 z"
       id="path4838"
       inkscape:connector-curvature="0" />
  </g>
</svg>
