<?xml version="1.0" encoding="UTF-8" standalone="no"?>
<!-- Created with Inkscape (http://www.inkscape.org/) -->

<svg
   xmlns:dc="http://purl.org/dc/elements/1.1/"
   xmlns:cc="http://creativecommons.org/ns#"
   xmlns:rdf="http://www.w3.org/1999/02/22-rdf-syntax-ns#"
   xmlns:svg="http://www.w3.org/2000/svg"
   xmlns="http://www.w3.org/2000/svg"
   xmlns:sodipodi="http://sodipodi.sourceforge.net/DTD/sodipodi-0.dtd"
   xmlns:inkscape="http://www.inkscape.org/namespaces/inkscape"
   width="64px"
   height="64px"
   id="svg18692"
   version="1.1"
   inkscape:version="0.48.4 r9939"
   sodipodi:docname="heart.svg">
  <defs
     id="defs18694" />
  <sodipodi:namedview
     id="base"
     pagecolor="#ffffff"
     bordercolor="#666666"
     borderopacity="1.0"
     inkscape:pageopacity="0.0"
     inkscape:pageshadow="2"
     inkscape:zoom="1.9445436"
     inkscape:cx="8.6800615"
     inkscape:cy="9.9844429"
     inkscape:current-layer="layer1"
     showgrid="true"
     inkscape:document-units="px"
     inkscape:grid-bbox="true"
     inkscape:window-width="1280"
     inkscape:window-height="748"
     inkscape:window-x="0"
     inkscape:window-y="0"
     inkscape:window-maximized="1" />
  <metadata
     id="metadata18697">
    <rdf:RDF>
      <cc:Work
         rdf:about="">
        <dc:format>image/svg+xml</dc:format>
        <dc:type
           rdf:resource="http://purl.org/dc/dcmitype/StillImage" />
        <dc:title />
      </cc:Work>
    </rdf:RDF>
  </metadata>
  <g
     id="layer1"
     inkscape:label="Layer 1"
     inkscape:groupmode="layer">
    <path
       style="font-size:medium;font-style:normal;font-variant:normal;font-weight:normal;font-stretch:normal;text-indent:0;text-align:start;text-decoration:none;line-height:normal;letter-spacing:normal;word-spacing:normal;text-transform:none;direction:ltr;block-progression:tb;writing-mode:lr-tb;text-anchor:start;baseline-shift:baseline;color:#000000;fill:#010101;fill-opacity:1;stroke:none;stroke-width:1.75395763;marker:none;visibility:visible;display:inline;overflow:visible;enable-background:accumulate;font-family:Sans;-inkscape-font-specification:Sans"
       d="M 17.40625,8.40625 C 9.0122628,8.40625 3.375,15.623326 3.375,23.3125 c 0,9.222893 7.032587,17.69778 13.90625,23.90625 C 24.154913,53.42722 31,57.40625 31,57.40625 l 0.4375,0.25 0.4375,-0.25 c 0,0 6.876337,-3.97903 13.75,-10.1875 C 52.498663,41.01028 59.5,32.535393 59.5,23.3125 59.5,15.623326 53.862737,8.40625 45.46875,8.40625 39.325702,8.40625 33.52933,11.871219 31.4375,17.25 29.344291,11.873563 23.547745,8.40625 17.40625,8.40625 z m 0,1.75 c 6.862476,0 13.15625,4.68491 13.15625,11.40625 l 1.75,0 c 0,-6.72134 6.293774,-11.40625 13.15625,-11.40625 7.391633,0 12.28125,6.313886 12.28125,13.15625 0,8.316681 -6.561743,16.524517 -13.28125,22.59375 -6.37134,5.75476 -12.387478,9.307909 -13.03125,9.6875 -0.646873,-0.381449 -6.630486,-3.93439 -13,-9.6875 C 11.717993,39.837017 5.125,31.629181 5.125,23.3125 c 0,-6.842364 4.889617,-13.15625 12.28125,-13.15625 z"
       id="path6064"
       inkscape:connector-curvature="0" />
  </g>
</svg>
