<?xml version="1.0" encoding="UTF-8" standalone="no"?>
<!-- Created with Inkscape (http://www.inkscape.org/) -->

<svg
   xmlns:dc="http://purl.org/dc/elements/1.1/"
   xmlns:cc="http://creativecommons.org/ns#"
   xmlns:rdf="http://www.w3.org/1999/02/22-rdf-syntax-ns#"
   xmlns:svg="http://www.w3.org/2000/svg"
   xmlns="http://www.w3.org/2000/svg"
   xmlns:sodipodi="http://sodipodi.sourceforge.net/DTD/sodipodi-0.dtd"
   xmlns:inkscape="http://www.inkscape.org/namespaces/inkscape"
   width="64px"
   height="64px"
   id="svg18692"
   version="1.1"
   inkscape:version="0.48.4 r9939"
   sodipodi:docname="map_point.svg">
  <defs
     id="defs18694" />
  <sodipodi:namedview
     id="base"
     pagecolor="#ffffff"
     bordercolor="#666666"
     borderopacity="1.0"
     inkscape:pageopacity="0.0"
     inkscape:pageshadow="2"
     inkscape:zoom="2.75"
     inkscape:cx="17.735933"
     inkscape:cy="40.436008"
     inkscape:current-layer="layer1"
     showgrid="true"
     inkscape:document-units="px"
     inkscape:grid-bbox="true"
     inkscape:window-width="1280"
     inkscape:window-height="748"
     inkscape:window-x="0"
     inkscape:window-y="0"
     inkscape:window-maximized="1" />
  <metadata
     id="metadata18697">
    <rdf:RDF>
      <cc:Work
         rdf:about="">
        <dc:format>image/svg+xml</dc:format>
        <dc:type
           rdf:resource="http://purl.org/dc/dcmitype/StillImage" />
        <dc:title />
      </cc:Work>
    </rdf:RDF>
  </metadata>
  <g
     id="layer1"
     inkscape:label="Layer 1"
     inkscape:groupmode="layer">
    <path
       style="font-size:medium;font-style:normal;font-variant:normal;font-weight:normal;font-stretch:normal;text-indent:0;text-align:start;text-decoration:none;line-height:normal;letter-spacing:normal;word-spacing:normal;text-transform:none;direction:ltr;block-progression:tb;writing-mode:lr-tb;text-anchor:start;baseline-shift:baseline;color:#000000;fill:#010101;fill-opacity:1;stroke:none;stroke-width:2;marker:none;visibility:visible;display:inline;overflow:visible;enable-background:accumulate;font-family:Sans;-inkscape-font-specification:Sans"
       d="m 33.521202,17.37227 c -3.380008,0 -6.138851,2.758844 -6.138851,6.138852 0,3.380008 2.758843,6.138852 6.138851,6.138852 3.380008,0 6.138852,-2.758844 6.138852,-6.138852 0,-3.380008 -2.758844,-6.138852 -6.138852,-6.138852 z m 0,1.753958 c 2.432099,0 4.384894,1.952795 4.384894,4.384894 0,2.432099 -1.952795,4.384894 -4.384894,4.384894 -2.432099,0 -4.384894,-1.952795 -4.384894,-4.384894 0,-2.432099 1.952795,-4.384894 4.384894,-4.384894 z"
       id="circle5022"
       inkscape:connector-curvature="0" />
    <path
       style="font-size:medium;font-style:normal;font-variant:normal;font-weight:normal;font-stretch:normal;text-indent:0;text-align:start;text-decoration:none;line-height:normal;letter-spacing:normal;word-spacing:normal;text-transform:none;direction:ltr;block-progression:tb;writing-mode:lr-tb;text-anchor:start;baseline-shift:baseline;color:#000000;fill:#010101;fill-opacity:1;stroke:none;stroke-width:1.75395763;marker:none;visibility:visible;display:inline;overflow:visible;enable-background:accumulate;font-family:Sans;-inkscape-font-specification:Sans"
       d="m 33.53125,4.21875 c -10.663357,0 -19.3125,8.952421 -19.3125,19.9375 0,7.207263 4.712771,16.071596 9.34375,23.25 4.630979,7.178404 9.25,12.625 9.25,12.625 l 0.65625,0.78125 0.6875,-0.78125 c 0,0 4.658294,-5.446204 9.3125,-12.625 4.654206,-7.178796 9.375314,-16.038116 9.34375,-23.25 C 52.764019,13.175858 44.194607,4.21875 33.53125,4.21875 z m 0,1.75 c 9.682551,0 17.486771,8.113384 17.53125,18.1875 0.02807,6.413735 -4.478172,15.210236 -9.0625,22.28125 -4.042278,6.234939 -7.599023,10.548025 -8.5,11.625 -0.885313,-1.064804 -4.438807,-5.378252 -8.46875,-11.625 -4.561951,-7.071406 -9.0625,-15.862894 -9.0625,-22.28125 0,-10.069429 7.879947,-18.1875 17.5625,-18.1875 z"
       id="path5024"
       inkscape:connector-curvature="0" />
  </g>
</svg>
