<?xml version="1.0" encoding="UTF-8" standalone="no"?>
<!-- Created with Inkscape (http://www.inkscape.org/) -->

<svg
   xmlns:dc="http://purl.org/dc/elements/1.1/"
   xmlns:cc="http://creativecommons.org/ns#"
   xmlns:rdf="http://www.w3.org/1999/02/22-rdf-syntax-ns#"
   xmlns:svg="http://www.w3.org/2000/svg"
   xmlns="http://www.w3.org/2000/svg"
   xmlns:sodipodi="http://sodipodi.sourceforge.net/DTD/sodipodi-0.dtd"
   xmlns:inkscape="http://www.inkscape.org/namespaces/inkscape"
   width="64px"
   height="64px"
   id="svg18692"
   version="1.1"
   inkscape:version="0.48.4 r9939"
   sodipodi:docname="pen2.svg">
  <defs
     id="defs18694" />
  <sodipodi:namedview
     id="base"
     pagecolor="#ffffff"
     bordercolor="#666666"
     borderopacity="1.0"
     inkscape:pageopacity="0.0"
     inkscape:pageshadow="2"
     inkscape:zoom="3.8890873"
     inkscape:cx="77.355629"
     inkscape:cy="21.776152"
     inkscape:current-layer="layer1"
     showgrid="true"
     inkscape:document-units="px"
     inkscape:grid-bbox="true"
     inkscape:window-width="1280"
     inkscape:window-height="748"
     inkscape:window-x="0"
     inkscape:window-y="0"
     inkscape:window-maximized="1" />
  <metadata
     id="metadata18697">
    <rdf:RDF>
      <cc:Work
         rdf:about="">
        <dc:format>image/svg+xml</dc:format>
        <dc:type
           rdf:resource="http://purl.org/dc/dcmitype/StillImage" />
        <dc:title />
      </cc:Work>
    </rdf:RDF>
  </metadata>
  <g
     id="layer1"
     inkscape:label="Layer 1"
     inkscape:groupmode="layer">
    <path
       style="font-size:medium;font-style:normal;font-variant:normal;font-weight:normal;font-stretch:normal;text-indent:0;text-align:start;text-decoration:none;line-height:normal;letter-spacing:normal;word-spacing:normal;text-transform:none;direction:ltr;block-progression:tb;writing-mode:lr-tb;text-anchor:start;baseline-shift:baseline;color:#000000;fill:#010101;fill-opacity:1;stroke:none;stroke-width:1.75395763;marker:none;visibility:visible;display:inline;overflow:visible;enable-background:accumulate;font-family:Sans;-inkscape-font-specification:Sans"
       d="m 24.0625,53.1875 0,0.875 0,5.28125 0,0.875 0.875,0 15.78125,0 0.875,0 0,-0.875 0,-5.28125 0,-0.875 -0.875,0 -15.78125,0 -0.875,0 z m 1.75,1.75 14.03125,0 0,3.53125 -14.03125,0 0,-3.53125 z"
       id="rect4680"
       inkscape:connector-curvature="0" />
    <path
       style="font-size:medium;font-style:normal;font-variant:normal;font-weight:normal;font-stretch:normal;text-indent:0;text-align:start;text-decoration:none;line-height:normal;letter-spacing:normal;word-spacing:normal;text-transform:none;direction:ltr;block-progression:tb;writing-mode:lr-tb;text-anchor:start;baseline-shift:baseline;color:#000000;fill:#010101;fill-opacity:1;stroke:none;stroke-width:1.75395763;marker:none;visibility:visible;display:inline;overflow:visible;enable-background:accumulate;font-family:Sans;-inkscape-font-specification:Sans"
       d="m 20.5625,44.4375 0,0.875 0,8.75 0,0.875 0.875,0 22.78125,0 0.875,0 0,-0.875 0,-8.75 0,-0.875 -0.875,0 -22.78125,0 -0.875,0 z m 1.75,1.75 21.03125,0 0,7 -21.03125,0 0,-7 z"
       id="rect4682"
       inkscape:connector-curvature="0" />
    <path
       style="font-size:medium;font-style:normal;font-variant:normal;font-weight:normal;font-stretch:normal;text-indent:0;text-align:start;text-decoration:none;line-height:normal;letter-spacing:normal;word-spacing:normal;text-transform:none;direction:ltr;block-progression:tb;writing-mode:lr-tb;text-anchor:start;baseline-shift:baseline;color:#000000;fill:#010101;fill-opacity:1;stroke:none;stroke-width:2;marker:none;visibility:visible;display:inline;overflow:visible;enable-background:accumulate;font-family:Sans;-inkscape-font-specification:Sans"
       d="m 32.835239,3.1458712 -0.767357,1.397685 -14.031661,25.4323858 -0.246606,0.411084 0.246606,0.411084 6.02923,11.208885 0,3.288671 1.753957,0 0,-3.507916 0,-0.219244 -0.109622,-0.191839 -5.919607,-10.962236 13.04506,-23.6236166 13.04506,23.6236166 -5.919607,10.962236 -0.109623,0.191839 0,0.219244 0,3.507916 1.753958,0 0,-3.288671 L 47.634256,30.79811 47.853501,30.387026 47.634256,29.975942 33.602595,4.5435562 32.835239,3.1458712 z"
       id="polyline4684"
       inkscape:connector-curvature="0" />
    <path
       style="font-size:medium;font-style:normal;font-variant:normal;font-weight:normal;font-stretch:normal;text-indent:0;text-align:start;text-decoration:none;line-height:normal;letter-spacing:normal;word-spacing:normal;text-transform:none;direction:ltr;block-progression:tb;writing-mode:lr-tb;text-anchor:start;baseline-shift:baseline;color:#000000;fill:#010101;fill-opacity:1;stroke:none;stroke-width:2;marker:none;visibility:visible;display:inline;overflow:visible;enable-background:accumulate;font-family:Sans;-inkscape-font-specification:Sans"
       d="m 32.835239,25.015531 c -2.411253,0 -4.384894,1.973571 -4.384894,4.384894 0,2.411322 1.973641,4.384894 4.384894,4.384894 2.411341,0 4.384894,-1.973572 4.384894,-4.384894 0,-2.411323 -1.973553,-4.384894 -4.384894,-4.384894 z m 0,1.753957 c 1.463414,0 2.630936,1.167523 2.630936,2.630937 0,1.463413 -1.167522,2.630936 -2.630936,2.630936 -1.463327,0 -2.630937,-1.167523 -2.630937,-2.630936 0,-1.463414 1.16761,-2.630937 2.630937,-2.630937 z"
       id="circle4686"
       inkscape:connector-curvature="0" />
    <path
       style="font-size:medium;font-style:normal;font-variant:normal;font-weight:normal;font-stretch:normal;text-indent:0;text-align:start;text-decoration:none;line-height:normal;letter-spacing:normal;word-spacing:normal;text-transform:none;direction:ltr;block-progression:tb;writing-mode:lr-tb;text-anchor:start;baseline-shift:baseline;color:#000000;fill:#010101;fill-opacity:1;stroke:none;stroke-width:1.75395763;marker:none;visibility:visible;display:inline;overflow:visible;enable-background:accumulate;font-family:Sans;-inkscape-font-specification:Sans"
       d="m 31.9375,4.96875 0,21.03125 1.78125,0 0,-21.03125 -1.78125,0 z"
       id="line4688"
       inkscape:connector-curvature="0" />
  </g>
</svg>
