<?xml version="1.0" encoding="UTF-8" standalone="no"?>
<!-- Created with Inkscape (http://www.inkscape.org/) -->

<svg
   xmlns:dc="http://purl.org/dc/elements/1.1/"
   xmlns:cc="http://creativecommons.org/ns#"
   xmlns:rdf="http://www.w3.org/1999/02/22-rdf-syntax-ns#"
   xmlns:svg="http://www.w3.org/2000/svg"
   xmlns="http://www.w3.org/2000/svg"
   xmlns:sodipodi="http://sodipodi.sourceforge.net/DTD/sodipodi-0.dtd"
   xmlns:inkscape="http://www.inkscape.org/namespaces/inkscape"
   width="64px"
   height="64px"
   id="svg18692"
   version="1.1"
   inkscape:version="0.48.4 r9939"
   sodipodi:docname="pin.svg">
  <defs
     id="defs18694" />
  <sodipodi:namedview
     id="base"
     pagecolor="#ffffff"
     bordercolor="#666666"
     borderopacity="1.0"
     inkscape:pageopacity="0.0"
     inkscape:pageshadow="2"
     inkscape:zoom="1.9445436"
     inkscape:cx="54.962654"
     inkscape:cy="-14.3873"
     inkscape:current-layer="layer1"
     showgrid="true"
     inkscape:document-units="px"
     inkscape:grid-bbox="true"
     inkscape:window-width="1280"
     inkscape:window-height="748"
     inkscape:window-x="0"
     inkscape:window-y="0"
     inkscape:window-maximized="1" />
  <metadata
     id="metadata18697">
    <rdf:RDF>
      <cc:Work
         rdf:about="">
        <dc:format>image/svg+xml</dc:format>
        <dc:type
           rdf:resource="http://purl.org/dc/dcmitype/StillImage" />
        <dc:title />
      </cc:Work>
    </rdf:RDF>
  </metadata>
  <g
     id="layer1"
     inkscape:label="Layer 1"
     inkscape:groupmode="layer">
    <path
       style="font-size:medium;font-style:normal;font-variant:normal;font-weight:normal;font-stretch:normal;text-indent:0;text-align:start;text-decoration:none;line-height:normal;letter-spacing:normal;word-spacing:normal;text-transform:none;direction:ltr;block-progression:tb;writing-mode:lr-tb;text-anchor:start;baseline-shift:baseline;color:#000000;fill:#010101;fill-opacity:1;stroke:none;stroke-width:1.75395763;marker:none;visibility:visible;display:inline;overflow:visible;enable-background:accumulate;font-family:Sans;-inkscape-font-specification:Sans"
       d="m 30.90625,36.03125 0,24.5625 1.78125,0 0,-24.5625 -1.78125,0 z"
       id="line5514"
       inkscape:connector-curvature="0" />
    <path
       style="font-size:medium;font-style:normal;font-variant:normal;font-weight:normal;font-stretch:normal;text-indent:0;text-align:start;text-decoration:none;line-height:normal;letter-spacing:normal;word-spacing:normal;text-transform:none;direction:ltr;block-progression:tb;writing-mode:lr-tb;text-anchor:start;baseline-shift:baseline;color:#000000;fill:#010101;fill-opacity:1;stroke:none;stroke-width:2;marker:none;visibility:visible;display:inline;overflow:visible;enable-background:accumulate;font-family:Sans;-inkscape-font-specification:Sans"
       d="m 22.149328,4.472024 0,0.8769788 0,3.5079153 0,0.4110838 0.328867,0.2740559 4.001216,3.2064542 -1.644335,13.894633 -7.426915,3.316076 -0.438489,0.191839 -0.08222,0.465895 -0.876979,5.261873 -0.164433,1.041412 1.041412,0 14.90864,0 0,-1.753957 -13.867228,0 0.630329,-3.781971 7.45432,-3.316077 0.465895,-0.219244 0.05481,-0.493301 1.753958,-14.90864 0.05481,-0.465895 -0.383678,-0.301461 -4.056027,-3.2338597 0,-2.2198527 7.892809,0 0,-1.7539576 -8.769788,0 -0.876979,0 z"
       id="polyline5516"
       inkscape:connector-curvature="0" />
    <path
       style="font-size:medium;font-style:normal;font-variant:normal;font-weight:normal;font-stretch:normal;text-indent:0;text-align:start;text-decoration:none;line-height:normal;letter-spacing:normal;word-spacing:normal;text-transform:none;direction:ltr;block-progression:tb;writing-mode:lr-tb;text-anchor:start;baseline-shift:baseline;color:#000000;fill:#010101;fill-opacity:1;stroke:none;stroke-width:2;marker:none;visibility:visible;display:inline;overflow:visible;enable-background:accumulate;font-family:Sans;-inkscape-font-specification:Sans"
       d="m 31.796095,4.472024 0,1.7539576 7.892809,0 0,2.2198527 -4.056027,3.2338597 -0.383678,0.301461 0.05481,0.465895 1.753958,14.90864 0.05481,0.493301 0.465895,0.219244 7.45432,3.316077 0.630328,3.781971 -13.867227,0 0,1.753957 14.90864,0 1.041412,0 -0.164433,-1.041412 -0.876979,-5.261873 -0.08222,-0.465895 -0.438489,-0.191839 -7.426915,-3.316076 -1.644335,-13.894633 4.001216,-3.2064542 0.328867,-0.2740559 0,-0.4110838 0,-3.5079153 0,-0.8769788 -0.876979,0 -8.769788,0 z"
       id="polyline5518"
       inkscape:connector-curvature="0" />
  </g>
</svg>
