<?xml version="1.0" encoding="UTF-8" standalone="no"?>
<!-- Created with Inkscape (http://www.inkscape.org/) -->

<svg
   xmlns:dc="http://purl.org/dc/elements/1.1/"
   xmlns:cc="http://creativecommons.org/ns#"
   xmlns:rdf="http://www.w3.org/1999/02/22-rdf-syntax-ns#"
   xmlns:svg="http://www.w3.org/2000/svg"
   xmlns="http://www.w3.org/2000/svg"
   xmlns:sodipodi="http://sodipodi.sourceforge.net/DTD/sodipodi-0.dtd"
   xmlns:inkscape="http://www.inkscape.org/namespaces/inkscape"
   width="64px"
   height="64px"
   id="svg18692"
   version="1.1"
   inkscape:version="0.48.4 r9939"
   sodipodi:docname="visible_eye.svg">
  <defs
     id="defs18694" />
  <sodipodi:namedview
     id="base"
     pagecolor="#ffffff"
     bordercolor="#666666"
     borderopacity="1.0"
     inkscape:pageopacity="0.0"
     inkscape:pageshadow="2"
     inkscape:zoom="3.8890873"
     inkscape:cx="17.181538"
     inkscape:cy="8.8072683"
     inkscape:current-layer="layer1"
     showgrid="true"
     inkscape:document-units="px"
     inkscape:grid-bbox="true"
     inkscape:window-width="1280"
     inkscape:window-height="748"
     inkscape:window-x="0"
     inkscape:window-y="0"
     inkscape:window-maximized="1" />
  <metadata
     id="metadata18697">
    <rdf:RDF>
      <cc:Work
         rdf:about="">
        <dc:format>image/svg+xml</dc:format>
        <dc:type
           rdf:resource="http://purl.org/dc/dcmitype/StillImage" />
        <dc:title />
      </cc:Work>
    </rdf:RDF>
  </metadata>
  <g
     id="layer1"
     inkscape:label="Layer 1"
     inkscape:groupmode="layer">
    <path
       style="font-size:medium;font-style:normal;font-variant:normal;font-weight:normal;font-stretch:normal;text-indent:0;text-align:start;text-decoration:none;line-height:normal;letter-spacing:normal;word-spacing:normal;text-transform:none;direction:ltr;block-progression:tb;writing-mode:lr-tb;text-anchor:start;baseline-shift:baseline;color:#000000;fill:#010101;fill-opacity:1;stroke:none;stroke-width:1.75395763;marker:none;visibility:visible;display:inline;overflow:visible;enable-background:accumulate;font-family:Sans;-inkscape-font-specification:Sans"
       d="M 32.1875,19.71875 C 14.209431,19.71875 4.28125,33.25 4.28125,33.25 l -0.375,0.5 0.375,0.53125 c 0,0 9.928181,13.53125 27.90625,13.53125 17.97806,0 27.875,-13.53125 27.875,-13.53125 l 0.375,-0.53125 -0.375,-0.5 c 0,0 -9.89694,-13.53125 -27.875,-13.53125 z m 0,1.78125 c 15.994429,0 24.902524,10.801252 26.03125,12.25 C 57.12582,35.155845 48.219763,46.03125 32.1875,46.03125 16.155227,46.03125 7.2179293,35.155845 6.125,33.75 7.2537249,32.301252 16.193062,21.5 32.1875,21.5 z"
       id="path4966"
       inkscape:connector-curvature="0" />
    <path
       style="font-size:medium;font-style:normal;font-variant:normal;font-weight:normal;font-stretch:normal;text-indent:0;text-align:start;text-decoration:none;line-height:normal;letter-spacing:normal;word-spacing:normal;text-transform:none;direction:ltr;block-progression:tb;writing-mode:lr-tb;text-anchor:start;baseline-shift:baseline;color:#000000;fill:#010101;fill-opacity:1;stroke:none;stroke-width:2;marker:none;visibility:visible;display:inline;overflow:visible;enable-background:accumulate;font-family:Sans;-inkscape-font-specification:Sans"
       d="m 32.171814,26.760237 c -3.864319,0 -7.01583,3.151512 -7.01583,7.015831 0,3.864407 3.151511,7.015831 7.01583,7.015831 3.86432,0 7.015831,-3.151424 7.015831,-7.015831 0,-3.864319 -3.151511,-7.015831 -7.015831,-7.015831 z m 0,1.753958 c 2.916481,0 5.261873,2.34548 5.261873,5.261873 0,2.916481 -2.345392,5.261873 -5.261873,5.261873 -2.916481,0 -5.261873,-2.345392 -5.261873,-5.261873 0,-2.916393 2.345392,-5.261873 5.261873,-5.261873 z"
       id="circle4968"
       inkscape:connector-curvature="0" />
  </g>
</svg>
