<?xml version="1.0" encoding="UTF-8" standalone="no"?>
<!-- Created with Inkscape (http://www.inkscape.org/) -->

<svg
   xmlns:dc="http://purl.org/dc/elements/1.1/"
   xmlns:cc="http://creativecommons.org/ns#"
   xmlns:rdf="http://www.w3.org/1999/02/22-rdf-syntax-ns#"
   xmlns:svg="http://www.w3.org/2000/svg"
   xmlns="http://www.w3.org/2000/svg"
   xmlns:sodipodi="http://sodipodi.sourceforge.net/DTD/sodipodi-0.dtd"
   xmlns:inkscape="http://www.inkscape.org/namespaces/inkscape"
   width="1600"
   height="1000"
   id="svg10507"
   version="1.1"
   inkscape:version="0.48.4 r9939"
   sodipodi:docname="background-1.svg">
  <defs
     id="defs10509" />
  <sodipodi:namedview
     id="base"
     pagecolor="#ffffff"
     bordercolor="#666666"
     borderopacity="1.0"
     inkscape:pageopacity="0.0"
     inkscape:pageshadow="2"
     inkscape:zoom="0.49497475"
     inkscape:cx="589.83005"
     inkscape:cy="383.6541"
     inkscape:document-units="px"
     inkscape:current-layer="layer1"
     showgrid="false"
     inkscape:window-width="1280"
     inkscape:window-height="748"
     inkscape:window-x="0"
     inkscape:window-y="0"
     inkscape:window-maximized="1" />
  <metadata
     id="metadata10512">
    <rdf:RDF>
      <cc:Work
         rdf:about="">
        <dc:format>image/svg+xml</dc:format>
        <dc:type
           rdf:resource="http://purl.org/dc/dcmitype/StillImage" />
        <dc:title></dc:title>
      </cc:Work>
    </rdf:RDF>
  </metadata>
  <g
     inkscape:label="Layer 1"
     inkscape:groupmode="layer"
     id="layer1"
     transform="translate(0,-52.362168)">
    <path
       inkscape:connector-curvature="0"
       id="path22-7-0"
       style="fill:none;stroke:#ececec;stroke-width:2.34083652;stroke-opacity:1"
       d="m 22.541691,638.4908 c 66.461066,0 122.994289,42.55757 144.087289,102.00847 9.63072,-3.86385 20.13077,-6.0098 31.13279,-6.0098 28.54141,0 53.73702,14.2995 68.91429,36.13809 11.46944,-5.43849 24.2822,-8.49041 37.80533,-8.49041 13.37069,0 26.034,2.98765 37.4028,8.30585 17.50665,-21.91135 44.38261,-35.95353 74.54065,-35.95353 40.28178,0 74.71094,25.03903 88.75746,60.44629 12.16551,-6.39114 26.00363,-10.0202 40.69978,-10.0202 7.23108,0 14.2448,0.89095 20.97154,2.54224 13.9578,-30.1691 44.41954,-51.09469 79.77818,-51.09469 32.59996,0 61.02705,17.78882 76.21087,44.19956 20.22187,-19.94411 47.95467,-32.26275 78.56644,-32.26275 16.41282,0 31.98248,3.56182 46.02662,9.91757 16.34791,-26.8097 45.8212,-44.70705 79.46079,-44.70705 21.94569,0 42.09968,7.63108 58.01053,20.36314 17.46435,-55.30206 69.06375,-95.38631 130.02055,-95.38631 67.9258,0 124.2281,49.7766 134.625,114.9226 15.0303,-7.27629 31.8897,-11.35094 49.7,-11.35094 53.5381,0 98.4739,36.84092 110.983,86.60301 8.5631,-2.71886 17.6776,-4.19009 27.135,-4.19009 18.7219,0 36.0976,5.74063 50.4894,15.55794 15.5328,-26.92629 44.5529,-45.0553 77.821,-45.0553 13.4344,0 26.1626,2.97874 37.6041,8.2786 M 2.8575047,639.79501 C 9.3079483,638.96592 15.86617,638.4908 22.541691,638.4908"
       sodipodi:nodetypes="ccscscscscscscscscscscsccc" />
  </g>
</svg>
