<!-- Created with Inkscape (http://www.inkscape.org/) -->
<svg xmlns:rdf="http://www.w3.org/1999/02/22-rdf-syntax-ns#" xmlns="http://www.w3.org/2000/svg" height="1000" width="1600" version="1.1" xmlns:cc="http://creativecommons.org/ns#" xmlns:dc="http://purl.org/dc/elements/1.1/">
 <metadata>
  <rdf:RDF>
   <cc:Work rdf:about="">
    <dc:format>image/svg+xml</dc:format>
    <dc:type rdf:resource="http://purl.org/dc/dcmitype/StillImage"/>
    <dc:title/>
   </cc:Work>
  </rdf:RDF>
 </metadata>
 <g stroke="#e6e6e6" transform="translate(0,-52.362168)" fill="none">
  <path d="m505.64,266.58c10.466,0.0134,19.929-3.6604,26.667-9.5715,7.5252,6.0185,17.042,9.6533,27.427,9.6654,11.713,0.0278,22.316-4.5419,30.246-11.957,4.6782,5.6127,11.727,9.1913,19.604,9.1913,14.155,0.041,25.651-11.415,25.678-25.569,0.0116-11.66-7.7555-21.488-18.398-24.621,0.85392-2.576,1.3555-5.3007,1.3555-8.16,0.0231-14.154-11.415-25.652-25.582-25.678-4.6371,0-8.96,1.2328-12.73,3.3894-6.0059-3.0775-12.798-4.854-20.01-4.8676-18.559-0.041-34.436,11.415-40.998,27.63-4.0794-1.3298-8.514-2.087-13.151-2.1007-20.444-0.0422-37.052,13.962-37.079,31.262-0.0231,17.3,16.526,31.359,36.972,31.386" stroke-width="1.2115885"/>
  <path d="m1200.6,659.9c7.5854,0.0127,14.436-2.65,19.318-6.9307,5.4546,4.3585,12.354,6.987,19.875,7.0017,8.4839,0.0162,16.171-3.2938,21.909-8.6661,3.3955,4.0649,8.4959,6.6585,14.205,6.6639,10.254,0.0214,18.584-8.2771,18.606-18.531,0-8.4475-5.6159-15.569-13.331-17.836,0.6242-1.8614,0.9795-3.8449,0.9847-5.9129,0.012-10.254-8.2698-18.581-18.534-18.599-3.3644-0.011-6.4983,0.89318-9.2222,2.4515-4.3547-2.2315-9.2695-3.519-14.501-3.5297-13.447-0.0226-24.953,8.2718-29.697,20.022-2.9657-0.96426-6.1726-1.5141-9.5368-1.5234-14.812-0.0266-26.84,10.113-26.86,22.652-0.023,12.53,11.969,22.717,26.784,22.738" stroke-width="1.07286477"/>
  <path d="m178.97,406.38c4.9975,0.007,9.5166-1.7479,12.734-4.5705,3.5934,2.874,8.1379,4.6096,13.097,4.6154,5.5934,0.0134,10.656-2.1688,14.443-5.7095,2.2338,2.6801,5.5998,4.389,9.361,4.389,6.7592,0.0196,12.248-5.4506,12.262-12.21,0.005-5.5679-3.7033-10.261-8.7853-11.757,0.40788-1.2301,0.6474-2.5312,0.6474-3.8965,0.0116-6.7589-5.4511-12.249-12.216-12.262-2.2141,0-4.2784,0.58868-6.0788,1.6185-2.8679-1.4695-6.1112-2.3178-9.5553-2.3243-8.8622-0.0196-16.444,5.4506-19.577,13.194-1.948-0.63495-4.0655-0.99654-6.2796-1.0031-9.7625-0.0202-17.693,6.6671-17.706,14.928-0.0116,8.261,7.8914,14.974,17.654,14.987" stroke-width="0.57855028"/>
  <path d="m1411.1,422.29c2.7262,0.005,5.1897-0.95247,6.9444-2.4914,1.9613,1.5672,4.4422,2.5124,7.1451,2.5174,3.0501,0.005,5.8139-1.1839,7.877-3.1155,1.2201,1.4615,3.0541,2.3938,5.1068,2.3952,3.686,0.008,6.6805-2.9752,6.6887-6.6613,0-3.0374-2.0192-5.5967-4.7933-6.4132,0.2255-0.66892,0.3529-1.3813,0.354-2.1247,0.011-3.6868-2.9726-6.6801-6.6619-6.6866-1.2098-0.005-2.3362,0.32109-3.3158,0.88084-1.5655-0.80199-3.333-1.2641-5.2126-1.2685-4.835-0.009-8.9711,2.9737-10.677,7.1979-1.0656-0.34644-2.2187-0.54385-3.4278-0.54748-5.3256-0.01-9.6497,3.6362-9.6566,8.1438-0.011,4.504,4.3027,8.1662,9.6293,8.1735" stroke-width="0.57855028"/>
 </g>
</svg>
