<?xml version="1.0" encoding="UTF-8" standalone="no"?>
<!-- Created with Inkscape (http://www.inkscape.org/) -->

<svg
   xmlns:dc="http://purl.org/dc/elements/1.1/"
   xmlns:cc="http://creativecommons.org/ns#"
   xmlns:rdf="http://www.w3.org/1999/02/22-rdf-syntax-ns#"
   xmlns:svg="http://www.w3.org/2000/svg"
   xmlns="http://www.w3.org/2000/svg"
   version="1.1"
   width="1600"
   height="1000"
   id="svg10507">
  <defs
     id="defs10509" />
  <metadata
     id="metadata10512">
    <rdf:RDF>
      <cc:Work
         rdf:about="">
        <dc:format>image/svg+xml</dc:format>
        <dc:type
           rdf:resource="http://purl.org/dc/dcmitype/StillImage" />
        <dc:title></dc:title>
      </cc:Work>
    </rdf:RDF>
  </metadata>
  <g
     transform="translate(0,-52.362168)"
     id="layer1">
    <path
       d="m 271.1229,149.15149 c 2.17191,-1.27416 5.27677,-2.11041 7.91725,-2.63688 -42.11513,7.93165 -81.74938,43.77334 -81.74938,85.88398 0,56.18151 60.54752,97.11692 75.26427,106.24185 C 156.83696,207.10071 271.1229,149.15149 271.1229,149.15149"
       id="path62"
       style="fill:none;stroke:#cccccc;stroke-width:0.59997344;stroke-opacity:1" />
    <path
       d="m 280.43569,339.05443 10.40414,-0.0492 c -41.26497,-131.82551 0.0858,-193.14129 0.0858,-193.14129 0.83036,-0.39149 1.63912,-0.69297 2.42629,-0.92468 -3.88663,0.12449 -7.78286,0.49647 -11.66888,1.11667 1.49333,-0.22199 2.49949,-0.31349 2.49949,-0.31349 -77.62457,56.37651 -9.83597,182.38071 -3.74684,193.31229"
       id="path64"
       style="fill:none;stroke:#cccccc;stroke-width:0.59997344;stroke-opacity:1" />
    <path
       d="m 305.41739,338.94487 10.37774,-0.0486 c 6.52711,-11.23012 76.29562,-135.63383 -1.17535,-191.90984 0,0 -0.036,-0.1275 0.71217,-0.0735 -4.12362,-0.85424 -8.27244,-1.44072 -12.39065,-1.7572 0.10079,0.045 0.19739,0.0848 0.19739,0.0848 33.66331,57.45046 4.03662,186.22726 2.2787,193.70443"
       id="path66"
       style="fill:none;stroke:#cccccc;stroke-width:0.59997344;stroke-opacity:1" />
    <path
       d="m 324.08556,338.01323 c 15.19493,-10.60213 71.48144,-53.33374 72.57939,-105.61464 0.79436,-37.69412 -32.50356,-70.37917 -70.0607,-82.49863 13.18981,7.53344 104.45538,66.04507 -2.51869,188.11327"
       id="path68"
       style="fill:none;stroke:#cccccc;stroke-width:0.59997344;stroke-opacity:1" />
    <path
       d="m 280.43569,339.05443 c -6.08913,-10.93158 -73.87773,-136.93578 3.74684,-193.31229 0,0 -1.00616,0.0915 -2.49949,0.31349 -0.88256,0.13949 -1.76273,0.29476 -2.64289,0.45898 -2.64048,0.52647 -5.74534,1.36272 -7.91725,2.63688 0,0 -114.28594,57.94922 1.43214,189.48895 0.26099,0.1641 0.48658,0.30443 0.71757,0.44386 l 7.16308,-0.03"
       id="path70"
       style="fill:none;stroke:#cccccc;stroke-width:0.59997344;stroke-opacity:1" />
    <path
       d="m 314.61978,146.98637 c 77.47097,56.27601 7.70246,180.67972 1.17535,191.90978 l 6.84869,-0.024 -0.0942,0.1995 c 0.45358,-0.30377 0.96416,-0.66298 1.53593,-1.05842 106.97407,-122.0682 15.7085,-180.57983 2.51869,-188.11327 -3.73004,-1.20445 -7.48527,-2.20491 -11.2723,-2.98709 -0.74697,-0.054 -0.71217,0.0735 -0.71217,0.0735"
       id="path72"
       style="fill:none;stroke:#cccccc;stroke-width:0.59997344;stroke-opacity:1" />
    <path
       d="m 290.83983,339.00493 14.57756,-0.0601 c 1.75792,-7.47717 31.38461,-136.25397 -2.2787,-193.70443 0,0 -0.0966,-0.0396 -0.19739,-0.0848 -2.2805,-0.174 -4.555,-0.28949 -6.8163,-0.28949 -0.92396,0 -1.84852,0.0456 -2.77308,0.0728 -0.78717,0.23171 -1.59593,0.53319 -2.42629,0.92468 0,0 -41.35077,61.31578 -0.0858,193.14129"
       id="path74"
       style="fill:none;stroke:#cccccc;stroke-width:0.59997344;stroke-opacity:1" />
    <path
       d="m 322.79442,339.22842 -0.46858,0 -8.75361,28.0637 0.47577,0 8.77642,-28.1381 -0.03,0.0744"
       id="path76"
       style="fill:#4f2e17;fill-opacity:1;fill-rule:nonzero;stroke:#cccccc;stroke-width:0.59997344" />
    <path
       d="m 273.98898,339.61306 -0.47218,0 8.67741,28.0646 0.47578,0 -8.68101,-28.0646"
       id="path78"
       style="fill:#4f2e17;fill-opacity:1;fill-rule:nonzero;stroke:#cccccc;stroke-width:0.59997344" />
    <path
       d="m 297.57333,367.42099 0.40859,0 0,-28.06364 -0.40859,0 0,28.06364 z"
       id="path80"
       style="fill:#4f2e17;fill-opacity:1;fill-rule:nonzero;stroke:#cccccc;stroke-width:0.59997344" />
    <path
       d="m 320.45032,346.15505 -45.0886,0 -11.4475,-13.05992 67.24803,0 -10.71193,13.05992"
       id="path82"
       style="fill:#ffffff;fill-opacity:1;fill-rule:nonzero;stroke:#cccccc;stroke-width:0.59997344;stroke-opacity:1" />
    <path
       d="m 297.77732,392.35541 c 6.42512,0 13.95179,-4.32089 16.04929,-9.35089 2.19831,-5.26531 0,-18.20073 0,-18.20073 l -32.10038,0 c 0,0 -2.1965,12.93542 0,18.20073 2.09931,5.03 9.62538,9.35089 16.05109,9.35089"
       id="path86"
       style="fill:none;stroke:#cccccc;stroke-width:0.59997344;stroke-opacity:1" />
    <path
       d="m 299.52145,369.34481 0.006,-0.006 c -1.75553,-1.63931 -2.16531,-4.81851 -2.16531,-4.81851 0.17399,2.22296 -2.04711,4.73913 -2.04711,4.73913 l 0,0 c -0.70317,0.58857 -1.15195,1.46975 -1.15195,2.45671 0,1.77298 1.43754,3.20842 3.20686,3.20842 1.76812,0 3.20206,-1.43544 3.20206,-3.20842 0,-0.94238 -0.40798,-1.78852 -1.05595,-2.37265"
       id="path90"
       style="fill:none;stroke:#cccccc;stroke-width:0.59997344;stroke-opacity:1" />
    <path
       d="m 283.89394,369.76263 0.006,-0.006 c -1.75492,-1.63883 -2.16531,-4.81851 -2.16531,-4.81851 0.174,2.2229 -2.04771,4.74057 -2.04771,4.74057 l 0,0 c -0.70256,0.58792 -1.15254,1.46916 -1.15254,2.45761 0,1.77148 1.43873,3.20608 3.20745,3.20608 1.76933,0 3.20326,-1.4346 3.20326,-3.20608 0,-0.94424 -0.40798,-1.78936 -1.05715,-2.37349"
       id="path92"
       style="fill:none;stroke:#cccccc;stroke-width:0.59997344;stroke-opacity:1" />
    <path
       d="m 315.63913,369.20741 0.006,-0.006 c -1.75372,-1.63931 -2.1641,-4.8176 -2.1641,-4.8176 0.17339,2.22056 -2.04891,4.73823 -2.04891,4.73823 l 0,0 c -0.70077,0.59037 -1.15075,1.46915 -1.15075,2.45761 0,1.77208 1.43754,3.20763 3.20746,3.20763 1.76812,0 3.20146,-1.43555 3.20146,-3.20763 0,-0.94418 -0.40738,-1.78882 -1.05656,-2.37296"
       id="path94"
       style="fill:none;stroke:#cccccc;stroke-width:0.59997344;stroke-opacity:1" />
    <path
       d="m 313.67362,364.94232 c -0.89456,2.14353 -2.96747,3.65846 -5.68415,4.15644 -3.66284,0.67353 -7.67666,-0.63514 -10.22655,-3.32908 l -0.18119,0.17106 -0.14999,-0.19895 c -8.48663,6.42217 -13.02722,2.97904 -15.70311,-0.17082 l -0.38158,0.32549 c 2.2661,2.66442 4.72479,3.99804 7.47507,3.99804 2.61768,0 5.50356,-1.21638 8.73741,-3.63068 2.19711,2.2268 5.35657,3.50901 8.50043,3.50901 0.67797,0 1.35414,-0.0594 2.01951,-0.18216 2.88587,-0.52881 5.09437,-2.1515 6.05613,-4.45558 l -0.46198,-0.19277"
       id="path96"
       style="fill:#000000;fill-opacity:1;fill-rule:nonzero;stroke:#cccccc;stroke-width:0.59997344" />
    <path
       d="m 280.82747,366.04495 34.41268,0 0,-1.84588 -34.41268,0 0,1.84588 z"
       id="path98"
       style="fill:none;stroke:#cccccc;stroke-width:0.59997344;stroke-opacity:1" />
  </g>
</svg>
