<?xml version="1.0" encoding="UTF-8" standalone="no"?>
<!-- Created with Inkscape (http://www.inkscape.org/) -->

<svg
   xmlns:dc="http://purl.org/dc/elements/1.1/"
   xmlns:cc="http://creativecommons.org/ns#"
   xmlns:rdf="http://www.w3.org/1999/02/22-rdf-syntax-ns#"
   xmlns:svg="http://www.w3.org/2000/svg"
   xmlns="http://www.w3.org/2000/svg"
   xmlns:sodipodi="http://sodipodi.sourceforge.net/DTD/sodipodi-0.dtd"
   xmlns:inkscape="http://www.inkscape.org/namespaces/inkscape"
   width="64px"
   height="64px"
   id="svg18692"
   version="1.1"
   inkscape:version="0.48.4 r9939"
   sodipodi:docname="photo.svg">
  <defs
     id="defs18694" />
  <sodipodi:namedview
     id="base"
     pagecolor="#ffffff"
     bordercolor="#666666"
     borderopacity="1.0"
     inkscape:pageopacity="0.0"
     inkscape:pageshadow="2"
     inkscape:zoom="2.75"
     inkscape:cx="9.4929583"
     inkscape:cy="18.294411"
     inkscape:current-layer="layer1"
     showgrid="true"
     inkscape:document-units="px"
     inkscape:grid-bbox="true"
     inkscape:window-width="1280"
     inkscape:window-height="748"
     inkscape:window-x="0"
     inkscape:window-y="0"
     inkscape:window-maximized="1" />
  <metadata
     id="metadata18697">
    <rdf:RDF>
      <cc:Work
         rdf:about="">
        <dc:format>image/svg+xml</dc:format>
        <dc:type
           rdf:resource="http://purl.org/dc/dcmitype/StillImage" />
        <dc:title />
      </cc:Work>
    </rdf:RDF>
  </metadata>
  <g
     id="layer1"
     inkscape:label="Layer 1"
     inkscape:groupmode="layer">
    <path
       style="font-size:medium;font-style:normal;font-variant:normal;font-weight:normal;font-stretch:normal;text-indent:0;text-align:start;text-decoration:none;line-height:normal;letter-spacing:normal;word-spacing:normal;text-transform:none;direction:ltr;block-progression:tb;writing-mode:lr-tb;text-anchor:start;baseline-shift:baseline;color:#000000;fill:#010101;fill-opacity:1;stroke:none;stroke-width:2;marker:none;visibility:visible;display:inline;overflow:visible;enable-background:accumulate;font-family:Sans;-inkscape-font-specification:Sans"
       d="m 26.713502,12.640398 -0.274056,0.328867 -6.741775,8.440921 -14.4975556,0 -0.8769789,0 0,0.876979 0,28.063322 0,0.876979 0.8769789,0 54.3726866,0 0.876979,0 0,-0.876979 0,-28.063322 0,-0.876979 -0.876979,0 -14.497556,0 -6.741775,-8.440921 -0.274055,-0.328867 -0.411084,0 -10.523746,0 -0.411084,0 z m 0.822168,1.753958 9.701578,0 6.741775,8.440921 0.274055,0.328867 0.411084,0 14.031661,0 0,26.309364 -52.6187288,0 0,-26.309364 14.0316608,0 0.411084,0 0.274056,-0.328867 6.741775,-8.440921 z"
       id="polygon5482"
       inkscape:connector-curvature="0" />
    <path
       style="font-size:medium;font-style:normal;font-variant:normal;font-weight:normal;font-stretch:normal;text-indent:0;text-align:start;text-decoration:none;line-height:normal;letter-spacing:normal;word-spacing:normal;text-transform:none;direction:ltr;block-progression:tb;writing-mode:lr-tb;text-anchor:start;baseline-shift:baseline;color:#000000;fill:#010101;fill-opacity:1;stroke:none;stroke-width:2;marker:none;visibility:visible;display:inline;overflow:visible;enable-background:accumulate;font-family:Sans;-inkscape-font-specification:Sans"
       d="m 32.386459,28.426017 c -4.348693,0 -7.89281,3.544134 -7.89281,7.892809 0,4.348763 3.544117,7.892897 7.89281,7.89281 4.348692,0 7.892809,-3.544047 7.892809,-7.89281 0,-4.348675 -3.544117,-7.892809 -7.892809,-7.892809 z m 0,1.753957 c 3.400783,0 6.138852,2.738104 6.138852,6.138852 0,3.400836 -2.738069,6.138852 -6.138852,6.138852 -3.400784,0 -6.138852,-2.738016 -6.138852,-6.138852 0,-3.400748 2.738068,-6.138764 6.138852,-6.138852 z"
       id="circle5484"
       inkscape:connector-curvature="0" />
    <path
       style="font-size:medium;font-style:normal;font-variant:normal;font-weight:normal;font-stretch:normal;text-indent:0;text-align:start;text-decoration:none;line-height:normal;letter-spacing:normal;word-spacing:normal;text-transform:none;direction:ltr;block-progression:tb;writing-mode:lr-tb;text-anchor:start;baseline-shift:baseline;color:#000000;fill:#010101;fill-opacity:1;stroke:none;stroke-width:1.75395763;marker:none;visibility:visible;display:inline;overflow:visible;enable-background:accumulate;font-family:Sans;-inkscape-font-specification:Sans"
       d="m 11.34375,22.28125 0,28.0625 1.75,0 0,-28.0625 -1.75,0 z"
       id="line5486"
       inkscape:connector-curvature="0" />
    <path
       style="font-size:medium;font-style:normal;font-variant:normal;font-weight:normal;font-stretch:normal;text-indent:0;text-align:start;text-decoration:none;line-height:normal;letter-spacing:normal;word-spacing:normal;text-transform:none;direction:ltr;block-progression:tb;writing-mode:lr-tb;text-anchor:start;baseline-shift:baseline;color:#000000;fill:#010101;fill-opacity:1;stroke:none;stroke-width:1.75395763;marker:none;visibility:visible;display:inline;overflow:visible;enable-background:accumulate;font-family:Sans;-inkscape-font-specification:Sans"
       d="m 51.679993,29.292334 0,0"
       id="line5488"
       inkscape:connector-curvature="0" />
  </g>
</svg>
