<?xml version="1.0" encoding="UTF-8" standalone="no"?>
<!-- Created with Inkscape (http://www.inkscape.org/) -->

<svg
   xmlns:dc="http://purl.org/dc/elements/1.1/"
   xmlns:cc="http://creativecommons.org/ns#"
   xmlns:rdf="http://www.w3.org/1999/02/22-rdf-syntax-ns#"
   xmlns:svg="http://www.w3.org/2000/svg"
   xmlns="http://www.w3.org/2000/svg"
   xmlns:sodipodi="http://sodipodi.sourceforge.net/DTD/sodipodi-0.dtd"
   xmlns:inkscape="http://www.inkscape.org/namespaces/inkscape"
   width="64px"
   height="64px"
   id="svg18692"
   version="1.1"
   inkscape:version="0.48.4 r9939"
   sodipodi:docname="social.svg">
  <defs
     id="defs18694" />
  <sodipodi:namedview
     id="base"
     pagecolor="#ffffff"
     bordercolor="#666666"
     borderopacity="1.0"
     inkscape:pageopacity="0.0"
     inkscape:pageshadow="2"
     inkscape:zoom="1.9445436"
     inkscape:cx="41.605527"
     inkscape:cy="-16.801704"
     inkscape:current-layer="layer1"
     showgrid="true"
     inkscape:document-units="px"
     inkscape:grid-bbox="true"
     inkscape:window-width="1280"
     inkscape:window-height="748"
     inkscape:window-x="0"
     inkscape:window-y="0"
     inkscape:window-maximized="1" />
  <metadata
     id="metadata18697">
    <rdf:RDF>
      <cc:Work
         rdf:about="">
        <dc:format>image/svg+xml</dc:format>
        <dc:type
           rdf:resource="http://purl.org/dc/dcmitype/StillImage" />
        <dc:title />
      </cc:Work>
    </rdf:RDF>
  </metadata>
  <g
     id="layer1"
     inkscape:label="Layer 1"
     inkscape:groupmode="layer">
    <path
       style="font-size:medium;font-style:normal;font-variant:normal;font-weight:normal;font-stretch:normal;text-indent:0;text-align:start;text-decoration:none;line-height:normal;letter-spacing:normal;word-spacing:normal;text-transform:none;direction:ltr;block-progression:tb;writing-mode:lr-tb;text-anchor:start;baseline-shift:baseline;color:#000000;fill:#010101;fill-opacity:1;stroke:none;stroke-width:2;marker:none;visibility:visible;display:inline;overflow:visible;enable-background:accumulate;font-family:Sans;-inkscape-font-specification:Sans"
       d="m 49.988407,4.797029 c -6.286061,0 -11.400724,5.1146633 -11.400724,11.400725 0,6.286061 5.114663,11.400724 11.400724,11.400724 6.286062,0 11.400725,-5.114663 11.400725,-11.400724 0,-6.2860617 -5.114663,-11.400725 -11.400725,-11.400725 z m 0,1.7539577 c 5.338153,0 9.646767,4.3086143 9.646767,9.6467673 0,5.338152 -4.308614,9.646767 -9.646767,9.646767 -5.338152,0 -9.646767,-4.308615 -9.646767,-9.646767 0,-5.338153 4.308615,-9.6467673 9.646767,-9.6467673 z"
       id="circle5650"
       inkscape:connector-curvature="0" />
    <path
       style="font-size:medium;font-style:normal;font-variant:normal;font-weight:normal;font-stretch:normal;text-indent:0;text-align:start;text-decoration:none;line-height:normal;letter-spacing:normal;word-spacing:normal;text-transform:none;direction:ltr;block-progression:tb;writing-mode:lr-tb;text-anchor:start;baseline-shift:baseline;color:#000000;fill:#010101;fill-opacity:1;stroke:none;stroke-width:2;marker:none;visibility:visible;display:inline;overflow:visible;enable-background:accumulate;font-family:Sans;-inkscape-font-specification:Sans"
       d="m 14.909255,31.983372 c -5.3173773,0 -9.6467674,4.329391 -9.6467674,9.646767 0,5.317377 4.3293901,9.646767 9.6467674,9.646767 5.317377,0 9.646767,-4.32939 9.646767,-9.646767 0,-5.317376 -4.32939,-9.646767 -9.646767,-9.646767 z m 0,1.753958 c 4.369468,0 7.892809,3.523341 7.892809,7.892809 0,4.369469 -3.523341,7.89281 -7.892809,7.89281 -4.369468,0 -7.8928097,-3.523341 -7.8928097,-7.89281 0,-4.369468 3.5233417,-7.892809 7.8928097,-7.892809 z"
       id="circle5652"
       inkscape:connector-curvature="0" />
    <path
       style="font-size:medium;font-style:normal;font-variant:normal;font-weight:normal;font-stretch:normal;text-indent:0;text-align:start;text-decoration:none;line-height:normal;letter-spacing:normal;word-spacing:normal;text-transform:none;direction:ltr;block-progression:tb;writing-mode:lr-tb;text-anchor:start;baseline-shift:baseline;color:#000000;fill:#010101;fill-opacity:1;stroke:none;stroke-width:2;marker:none;visibility:visible;display:inline;overflow:visible;enable-background:accumulate;font-family:Sans;-inkscape-font-specification:Sans"
       d="m 47.357471,45.138055 c -4.348692,0 -7.892809,3.544117 -7.892809,7.892809 0,4.348693 3.544117,7.89281 7.892809,7.89281 4.348692,0 7.892809,-3.544117 7.892809,-7.89281 0,-4.348692 -3.544117,-7.892809 -7.892809,-7.892809 z m 0,1.753957 c 3.400784,0 6.138852,2.738069 6.138852,6.138852 0,3.400784 -2.738068,6.138852 -6.138852,6.138852 -3.400784,0 -6.138852,-2.738068 -6.138852,-6.138852 0,-3.400783 2.738068,-6.138852 6.138852,-6.138852 z"
       id="circle5654"
       inkscape:connector-curvature="0" />
    <path
       style="font-size:medium;font-style:normal;font-variant:normal;font-weight:normal;font-stretch:normal;text-indent:0;text-align:start;text-decoration:none;line-height:normal;letter-spacing:normal;word-spacing:normal;text-transform:none;direction:ltr;block-progression:tb;writing-mode:lr-tb;text-anchor:start;baseline-shift:baseline;color:#000000;fill:#010101;fill-opacity:1;stroke:none;stroke-width:1.75395763;marker:none;visibility:visible;display:inline;overflow:visible;enable-background:accumulate;font-family:Sans;-inkscape-font-specification:Sans"
       d="m 23.125,44.3125 -0.65625,1.65625 17.53125,7 0.65625,-1.625 L 23.125,44.3125 z"
       id="line5656"
       inkscape:connector-curvature="0" />
    <path
       style="font-size:medium;font-style:normal;font-variant:normal;font-weight:normal;font-stretch:normal;text-indent:0;text-align:start;text-decoration:none;line-height:normal;letter-spacing:normal;word-spacing:normal;text-transform:none;direction:ltr;block-progression:tb;writing-mode:lr-tb;text-anchor:start;baseline-shift:baseline;color:#000000;fill:#010101;fill-opacity:1;stroke:none;stroke-width:1.75395763;marker:none;visibility:visible;display:inline;overflow:visible;enable-background:accumulate;font-family:Sans;-inkscape-font-specification:Sans"
       d="M 40.75,22.46875 21.4375,34.75 l 0.96875,1.5 19.28125,-12.28125 -0.9375,-1.5 z"
       id="line5658"
       inkscape:connector-curvature="0" />
  </g>
</svg>
