<?xml version="1.0" encoding="UTF-8" standalone="no"?>
<!-- Created with Inkscape (http://www.inkscape.org/) -->

<svg
   xmlns:dc="http://purl.org/dc/elements/1.1/"
   xmlns:cc="http://creativecommons.org/ns#"
   xmlns:rdf="http://www.w3.org/1999/02/22-rdf-syntax-ns#"
   xmlns:svg="http://www.w3.org/2000/svg"
   xmlns="http://www.w3.org/2000/svg"
   xmlns:sodipodi="http://sodipodi.sourceforge.net/DTD/sodipodi-0.dtd"
   xmlns:inkscape="http://www.inkscape.org/namespaces/inkscape"
   width="64px"
   height="64px"
   id="svg18692"
   version="1.1"
   inkscape:version="0.48.4 r9939"
   sodipodi:docname="design.svg">
  <defs
     id="defs18694" />
  <sodipodi:namedview
     id="base"
     pagecolor="#ffffff"
     bordercolor="#666666"
     borderopacity="1.0"
     inkscape:pageopacity="0.0"
     inkscape:pageshadow="2"
     inkscape:zoom="5.4999999"
     inkscape:cx="11.784312"
     inkscape:cy="39.431589"
     inkscape:current-layer="layer1"
     showgrid="true"
     inkscape:document-units="px"
     inkscape:grid-bbox="true"
     inkscape:window-width="1280"
     inkscape:window-height="748"
     inkscape:window-x="0"
     inkscape:window-y="0"
     inkscape:window-maximized="1" />
  <metadata
     id="metadata18697">
    <rdf:RDF>
      <cc:Work
         rdf:about="">
        <dc:format>image/svg+xml</dc:format>
        <dc:type
           rdf:resource="http://purl.org/dc/dcmitype/StillImage" />
        <dc:title></dc:title>
      </cc:Work>
    </rdf:RDF>
  </metadata>
  <g
     id="layer1"
     inkscape:label="Layer 1"
     inkscape:groupmode="layer">
    <path
       style="font-size:medium;font-style:normal;font-variant:normal;font-weight:normal;font-stretch:normal;text-indent:0;text-align:start;text-decoration:none;line-height:normal;letter-spacing:normal;word-spacing:normal;text-transform:none;direction:ltr;block-progression:tb;writing-mode:lr-tb;text-anchor:start;baseline-shift:baseline;color:#000000;fill:#010101;fill-opacity:1;stroke:none;stroke-width:1.81596565;marker:none;visibility:visible;display:inline;overflow:visible;enable-background:accumulate;font-family:Sans;-inkscape-font-specification:Sans"
       d="M 36.125,33.8125 34.84375,35.09375 39.375,39.625 40.65625,38.34375 36.125,33.8125 z"
       id="line6054"
       inkscape:connector-curvature="0" />
    <path
       style="font-size:medium;font-style:normal;font-variant:normal;font-weight:normal;font-stretch:normal;text-indent:0;text-align:start;text-decoration:none;line-height:normal;letter-spacing:normal;word-spacing:normal;text-transform:none;direction:ltr;block-progression:tb;writing-mode:lr-tb;text-anchor:start;baseline-shift:baseline;color:#000000;fill:#010101;fill-opacity:1;stroke:none;stroke-width:1.81594825;marker:none;visibility:visible;display:inline;overflow:visible;enable-background:accumulate;font-family:Sans;-inkscape-font-specification:Sans"
       d="m 35.996155,41.697203 0.662912,0.662913 17.235728,17.235727 0.640815,0.640816 0.640816,-0.640816 5.435883,-5.435883 0.640816,-0.640816 -0.640816,-0.640815 -17.235727,-17.235728 -0.662913,-0.662912 -0.640816,0.640815 -5.435883,5.435883 -0.640815,0.640816 z m 2.585359,0.0221 4.154252,-4.154252 L 58.689863,53.519144 54.53561,57.673397 38.581514,41.7193 z"
       id="rect6056"
       inkscape:connector-curvature="0" />
    <path
       style="font-size:medium;font-style:normal;font-variant:normal;font-weight:normal;font-stretch:normal;text-indent:0;text-align:start;text-decoration:none;line-height:normal;letter-spacing:normal;word-spacing:normal;text-transform:none;direction:ltr;block-progression:tb;writing-mode:lr-tb;text-anchor:start;baseline-shift:baseline;color:#000000;fill:#010101;fill-opacity:1;stroke:none;stroke-width:2;marker:none;visibility:visible;display:inline;overflow:visible;enable-background:accumulate;font-family:Sans;-inkscape-font-specification:Sans"
       d="M 9.9173681,6.0594135 9.406537,6.5701538 7.5905714,8.3861194 7.1082509,8.8968598 7.4770735,9.4926781 12.92497,18.572506 l 0.59591,0.993152 0.822904,-0.822814 5.447897,-5.447897 0.822814,-0.822905 -1.02148,-0.595909 L 10.513186,6.4282361 9.9173681,6.0594135 z M 10.201022,8.3576996 17.663551,12.840956 13.861373,16.643043 9.3782079,9.1806044 10.201022,8.3576996 z"
       id="polygon6058"
       inkscape:connector-curvature="0" />
    <path
       style="font-size:medium;font-style:normal;font-variant:normal;font-weight:normal;font-stretch:normal;text-indent:0;text-align:start;text-decoration:none;line-height:normal;letter-spacing:normal;word-spacing:normal;text-transform:none;direction:ltr;block-progression:tb;writing-mode:lr-tb;text-anchor:start;baseline-shift:baseline;color:#000000;fill:#010101;fill-opacity:1;stroke:none;stroke-width:1.81596565;marker:none;visibility:visible;display:inline;overflow:visible;enable-background:accumulate;font-family:Sans;-inkscape-font-specification:Sans"
       d="M 17.0625,14.75 15.78125,16.03125 27.5625,27.84375 28.875,26.53125 17.0625,14.75 z"
       id="line6060"
       inkscape:connector-curvature="0" />
    <path
       style="font-size:medium;font-style:normal;font-variant:normal;font-weight:normal;font-stretch:normal;text-indent:0;text-align:start;text-decoration:none;line-height:normal;letter-spacing:normal;word-spacing:normal;text-transform:none;direction:ltr;block-progression:tb;writing-mode:lr-tb;text-anchor:start;baseline-shift:baseline;color:#000000;fill:#010101;fill-opacity:1;stroke:none;stroke-width:1.81596565;marker:none;visibility:visible;display:inline;overflow:visible;enable-background:accumulate;font-family:Sans;-inkscape-font-specification:Sans"
       d="m 47.75,6.375 c -4.689368,0 -7.800793,1.1603976 -9.71875,3.0625 -1.917957,1.902102 -2.5625,4.422463 -2.5625,6.84375 l 0,3.28125 L 5.3125,50.15625 5.15625,50.3125 5.09375,50.53125 3.5,56 l -0.15625,0.53125 0.40625,0.375 1.9375,1.8125 0.375,0.34375 0.46875,-0.125 5.5,-1.34375 0.25,-0.0625 0.1875,-0.1875 30.65625,-30.15625 3.25,0 c 2.420864,0 4.958649,-0.614771 6.875,-2.53125 1.916351,-1.916479 3.125,-5.027506 3.125,-9.71875 l 0,-1.4375 -1.3125,0.59375 -6.65625,3.125 -2.78125,-2.8125 2.9375,-6.78125 0.5625,-1.25 -1.375,0 z m -1.5,2 -2.53125,5.84375 -0.21875,0.5625 0.40625,0.4375 3.625,3.75 L 48,19.4375 l 0.59375,-0.28125 5.75,-2.71875 c -0.251158,3.338099 -1.096899,5.659314 -2.375,6.9375 -1.488357,1.488457 -3.475608,2 -5.59375,2 l -3.625,0 -0.375,0 -0.25,0.25 -30.75,30.25 -4.8125,1.1875 -1.15625,-1.09375 1.375,-4.6875 30.25,-30.71875 0.28125,-0.28125 0,-0.34375 0,-3.65625 c 0,-2.118627 0.513022,-4.087814 2,-5.5625 C 40.589839,9.4519704 42.908324,8.6230863 46.25,8.375 z"
       id="path6062"
       inkscape:connector-curvature="0" />
  </g>
</svg>
