<?xml version="1.0" encoding="UTF-8" standalone="no"?>
<!-- Created with Inkscape (http://www.inkscape.org/) -->

<svg
   xmlns:dc="http://purl.org/dc/elements/1.1/"
   xmlns:cc="http://creativecommons.org/ns#"
   xmlns:rdf="http://www.w3.org/1999/02/22-rdf-syntax-ns#"
   xmlns:svg="http://www.w3.org/2000/svg"
   xmlns="http://www.w3.org/2000/svg"
   xmlns:sodipodi="http://sodipodi.sourceforge.net/DTD/sodipodi-0.dtd"
   xmlns:inkscape="http://www.inkscape.org/namespaces/inkscape"
   width="64px"
   height="64px"
   id="svg18692"
   version="1.1"
   inkscape:version="0.48.4 r9939"
   sodipodi:docname="video_games.svg">
  <defs
     id="defs18694" />
  <sodipodi:namedview
     id="base"
     pagecolor="#ffffff"
     bordercolor="#666666"
     borderopacity="1.0"
     inkscape:pageopacity="0.0"
     inkscape:pageshadow="2"
     inkscape:zoom="2.75"
     inkscape:cx="13.279093"
     inkscape:cy="34.5162"
     inkscape:current-layer="layer1"
     showgrid="true"
     inkscape:document-units="px"
     inkscape:grid-bbox="true"
     inkscape:window-width="1280"
     inkscape:window-height="748"
     inkscape:window-x="0"
     inkscape:window-y="0"
     inkscape:window-maximized="1" />
  <metadata
     id="metadata18697">
    <rdf:RDF>
      <cc:Work
         rdf:about="">
        <dc:format>image/svg+xml</dc:format>
        <dc:type
           rdf:resource="http://purl.org/dc/dcmitype/StillImage" />
        <dc:title />
      </cc:Work>
    </rdf:RDF>
  </metadata>
  <g
     id="layer1"
     inkscape:label="Layer 1"
     inkscape:groupmode="layer">
    <path
       style="font-size:medium;font-style:normal;font-variant:normal;font-weight:normal;font-stretch:normal;text-indent:0;text-align:start;text-decoration:none;line-height:normal;letter-spacing:normal;word-spacing:normal;text-transform:none;direction:ltr;block-progression:tb;writing-mode:lr-tb;text-anchor:start;baseline-shift:baseline;color:#000000;fill:#010101;fill-opacity:1;stroke:none;stroke-width:1.75395763;marker:none;visibility:visible;display:inline;overflow:visible;enable-background:accumulate;font-family:Sans;-inkscape-font-specification:Sans"
       d="M 16.78125,28.3125 C 10.010629,28.3125 4.5,33.823129 4.5,40.59375 c 0,6.770611 5.510629,12.28125 12.28125,12.28125 4.148821,0 7.779874,-2.125083 10,-5.28125 l 11.5625,0 c 2.222078,3.155607 5.851948,5.28125 10,5.28125 6.770621,0 12.28125,-5.510639 12.28125,-12.28125 0,-6.770539 -5.510639,-12.28125 -12.28125,-12.28125 l -31.5625,0 z m 0,1.75 31.5625,0 c 5.822789,0 10.53125,4.708369 10.53125,10.53125 0,5.822789 -4.708451,10.53125 -10.53125,10.53125 -3.728637,0 -6.97003,-1.955462 -8.84375,-4.875 l -0.28125,-0.40625 -0.46875,0 -12.375,0 -0.46875,0 L 25.625,46.25 c -1.870867,2.918877 -5.114178,4.875 -8.84375,4.875 C 10.958451,51.125 6.25,46.416539 6.25,40.59375 6.25,34.770951 10.958451,30.0625 16.78125,30.0625 z"
       id="path5108-6"
       inkscape:connector-curvature="0" />
    <path
       style="font-size:medium;font-style:normal;font-variant:normal;font-weight:normal;font-stretch:normal;text-indent:0;text-align:start;text-decoration:none;line-height:normal;letter-spacing:normal;word-spacing:normal;text-transform:none;direction:ltr;block-progression:tb;writing-mode:lr-tb;text-anchor:start;baseline-shift:baseline;color:#000000;fill:#010101;fill-opacity:1;stroke:none;stroke-width:1.75395763;marker:none;visibility:visible;display:inline;overflow:visible;enable-background:accumulate;font-family:Sans;-inkscape-font-specification:Sans"
       d="m 15.90625,33.5625 0,14.03125 1.75,0 0,-14.03125 -1.75,0 z"
       id="line5110-0"
       inkscape:connector-curvature="0" />
    <path
       style="font-size:medium;font-style:normal;font-variant:normal;font-weight:normal;font-stretch:normal;text-indent:0;text-align:start;text-decoration:none;line-height:normal;letter-spacing:normal;word-spacing:normal;text-transform:none;direction:ltr;block-progression:tb;writing-mode:lr-tb;text-anchor:start;baseline-shift:baseline;color:#000000;fill:#010101;fill-opacity:1;stroke:none;stroke-width:1.75395763;marker:none;visibility:visible;display:inline;overflow:visible;enable-background:accumulate;font-family:Sans;-inkscape-font-specification:Sans"
       d="m 9.75,39.71875 0,1.75 14.03125,0 0,-1.75 -14.03125,0 z"
       id="line5112-2"
       inkscape:connector-curvature="0" />
    <path
       style="font-size:medium;font-style:normal;font-variant:normal;font-weight:normal;font-stretch:normal;text-indent:0;text-align:start;text-decoration:none;line-height:normal;letter-spacing:normal;word-spacing:normal;text-transform:none;direction:ltr;block-progression:tb;writing-mode:lr-tb;text-anchor:start;baseline-shift:baseline;color:#000000;fill:#010101;fill-opacity:1;stroke:none;stroke-width:2;marker:none;visibility:visible;display:inline;overflow:visible;enable-background:accumulate;font-family:Sans;-inkscape-font-specification:Sans"
       d="m 48.348331,33.557148 c -3.864319,0 -7.01583,3.151485 -7.01583,7.015831 0,3.864346 3.151511,7.015831 7.01583,7.015831 3.86432,0 7.015831,-3.151485 7.015831,-7.015831 0,-3.864346 -3.151511,-7.015831 -7.015831,-7.015831 z m 0,1.753958 c 2.916481,0 5.261873,2.345436 5.261873,5.261873 0,2.916437 -2.345392,5.261873 -5.261873,5.261873 -2.916481,0 -5.261873,-2.345436 -5.261873,-5.261873 0,-2.916437 2.345392,-5.261873 5.261873,-5.261873 z"
       id="circle5114-9"
       inkscape:connector-curvature="0" />
    <path
       style="font-size:medium;font-style:normal;font-variant:normal;font-weight:normal;font-stretch:normal;text-indent:0;text-align:start;text-decoration:none;line-height:normal;letter-spacing:normal;word-spacing:normal;text-transform:none;direction:ltr;block-progression:tb;writing-mode:lr-tb;text-anchor:start;baseline-shift:baseline;color:#000000;fill:#010101;fill-opacity:1;stroke:none;stroke-width:1.75395763;marker:none;visibility:visible;display:inline;overflow:visible;enable-background:accumulate;font-family:Sans;-inkscape-font-specification:Sans"
       d="m 47.46875,34.4375 0,12.28125 1.75,0 0,-12.28125 -1.75,0 z"
       id="line5116-3"
       inkscape:connector-curvature="0" />
    <path
       style="font-size:medium;font-style:normal;font-variant:normal;font-weight:normal;font-stretch:normal;text-indent:0;text-align:start;text-decoration:none;line-height:normal;letter-spacing:normal;word-spacing:normal;text-transform:none;direction:ltr;block-progression:tb;writing-mode:lr-tb;text-anchor:start;baseline-shift:baseline;color:#000000;fill:#010101;fill-opacity:1;stroke:none;stroke-width:1.75395763;marker:none;visibility:visible;display:inline;overflow:visible;enable-background:accumulate;font-family:Sans;-inkscape-font-specification:Sans"
       d="m 42.21875,39.71875 0,1.75 12.28125,0 0,-1.75 -12.28125,0 z"
       id="line5118-6"
       inkscape:connector-curvature="0" />
    <path
       style="font-size:medium;font-style:normal;font-variant:normal;font-weight:normal;font-stretch:normal;text-indent:0;text-align:start;text-decoration:none;line-height:normal;letter-spacing:normal;word-spacing:normal;text-transform:none;direction:ltr;block-progression:tb;writing-mode:lr-tb;text-anchor:start;baseline-shift:baseline;color:#000000;fill:#010101;fill-opacity:1;stroke:none;stroke-width:2;marker:none;visibility:visible;display:inline;overflow:visible;enable-background:accumulate;font-family:Sans;-inkscape-font-specification:Sans"
       d="m 35.193649,15.167999 0,2.630936 0,0.876979 0.876979,0 7.892809,0 0,4.384894 -11.400725,0 -0.876979,0 0,0.876979 0,5.261873 1.753958,0 0,-4.384894 11.400725,0 0.876979,0 0,-0.876979 0,-6.138852 0,-0.876979 -0.876979,0 -7.89281,0 0,-1.753957 -1.753957,0 z"
       id="polyline5120-7"
       inkscape:connector-curvature="0" />
  </g>
</svg>
