<?xml version="1.0" standalone="no"?>
<!DOCTYPE svg PUBLIC "-//W3C//DTD SVG 1.1//EN" "http://www.w3.org/Graphics/SVG/1.1/DTD/svg11.dtd" >
<svg xmlns="http://www.w3.org/2000/svg">
<metadata>Generated by IcoMoon</metadata>
<defs>
<font id="icomoon" horiz-adv-x="1024">
<font-face units-per-em="1024" ascent="960" descent="-64" />
<missing-glyph horiz-adv-x="1024" />
<glyph unicode="&#x20;" horiz-adv-x="512" d="" />
<glyph unicode="&#xe900;" glyph-name="keyboard" d="M66 548.5v-449h898v449h-898zM94 520h842v-392.5h-842v392.5zM206.433 786.649v-56.127h140.317v-70.158h-196.443v-126.285h28.063v98.222h196.443v126.285h-140.317v28.063h-28.063zM122 450v-28h56.5v28h-56.5zM206.5 450v-28h56v28h-56zM290.5 450v-28h56.5v28h-56.5zM375 450v-28h56v28h-56zM459 450v-28h56v28h-56zM543 450v-28h56.5v28h-56.5zM627.5 450v-28h56v28h-56zM711.5 450v-28h56v28h-56zM796 450v-28h56v28h-56zM122 225.5v-28h56.5v28h-56.5zM206.5 225.5v-28h56v28h-56zM290.5 225.5v-28h365v28h-365zM767.5 225.5v-28h56.5v28h-56.5zM852 225.5v-28h56v28h-56zM683.5 225.5v-28h56v28h-56zM178.5 338v-28.5h56v28.5h-56zM262.5 338v-28.5h56v28.5h-56zM347 338v-28.5h56v28.5h-56zM431 338v-28.5h56v28.5h-56zM515 338v-28.5h56.5v28.5h-56.5zM599.5 338v-28.5h56v28.5h-56zM683.5 338v-28.5h56v28.5h-56zM767.5 338v-28.5h56.5v28.5h-56.5zM852 338v-28.5h56v28.5h-56z" />
<glyph unicode="&#xe901;" glyph-name="video_games" d="M268.5 507c-108.33 0-196.5-88.17-196.5-196.5s88.17-196.5 196.5-196.5c66.381 0 124.478 34.001 160 84.5h185c35.553-50.49 93.631-84.5 160-84.5 108.33 0 196.5 88.17 196.5 196.5 0 108.329-88.17 196.5-196.5 196.5h-505zM268.5 479h505c93.165 0 168.5-75.334 168.5-168.5s-75.335-168.5-168.5-168.5c-59.658 0-111.52 31.287-141.5 78l-4.5 6.5h-213l-4.5-6.5c-29.934-46.702-81.827-78-141.5-78-93.165 0-168.5 75.335-168.5 168.5s75.335 168.5 168.5 168.5zM254.5 423v-224.5h28v224.5h-28zM156 324.5v-28h224.5v28h-224.5zM773.573 423.086c-61.829 0-112.253-50.424-112.253-112.253s50.424-112.253 112.253-112.253c61.829 0 112.253 50.424 112.253 112.253s-50.424 112.253-112.253 112.253zM773.573 395.022c46.664 0 84.19-37.527 84.19-84.19s-37.526-84.19-84.19-84.19c-46.664 0-84.19 37.527-84.19 84.19s37.526 84.19 84.19 84.19zM759.5 409v-196.5h28v196.5h-28zM675.5 324.5v-28h196.5v28h-196.5zM563.098 717.312v-56.127h140.317v-70.158h-196.443v-98.222h28.063v70.158h196.443v126.285h-140.317v28.063h-28.063z" />
<glyph unicode="&#xe902;" glyph-name="mouse_scroll" d="M531.5 890c-131.568 0-238.5-106.932-238.5-238.5v-421c0-131.568 106.932-238.5 238.5-238.5s238.5 106.932 238.5 238.5v421c0 131.568-106.931 238.5-238.5 238.5zM531.5 862c116.4 0 210.5-94.1 210.5-210.5v-421c0-116.4-94.1-210.5-210.5-210.5s-210.5 94.1-210.5 210.5v421c0 116.4 94.1 210.5 210.5 210.5zM517.5 749.5v-112h28v112h-28z" />
<glyph unicode="&#xe903;" glyph-name="mouse_click" d="M525.5 884c-131.568 0-238.5-106.932-238.5-238.5v-421c0-131.568 106.932-238.5 238.5-238.5s238.5 106.932 238.5 238.5v421c0 131.568-106.932 238.5-238.5 238.5zM525.5 856c116.4 0 210.5-94.1 210.5-210.5v-421c0-116.4-94.1-210.5-210.5-210.5s-210.5 94.1-210.5 210.5v421c0 116.4 94.101 210.5 210.5 210.5zM511.5 870v-281h28v281h-28zM301 603.5v-28.5h449v28.5h-449z" />
<glyph unicode="&#xe904;" glyph-name="left_or_right" d="M363.16 774.143v-196.443h482.338l3.946 3.508 110.499 94.714-12.278 10.962-98.222 84.19-3.946 3.069h-482.338zM391.224 746.079h443.751l81.559-69.72-81.998-70.597h-443.313v140.317zM189.519 549.636l-3.946-3.069-98.222-84.19-12.278-10.962 110.499-94.714 3.946-3.508h482.338v196.443h-482.338zM200.042 521.573h443.751v-140.317h-443.313l-81.998 70.597 81.559 69.72zM503.5 367.5v-337h28v337h-28zM503.5 592v-56h28v56h-28zM503.5 830.5v-70h28v70h-28zM405.5 58.5v-28h224.5v28h-224.5z" />
<glyph unicode="&#xe905;" glyph-name="bulb" d="M524 878.5c-170.322 0-308.5-138.178-308.5-308.5 0-108.017 56.229-203.734 140.5-259v-78h336.5v79.5c84.14 55.143 140.5 149.469 140.5 257.5 0 170.322-138.678 308.5-309 308.5zM524 850.5c155.156 0 281-125.344 281-280.5 0-101.203-53.846-189.595-134-239l-6.5-4.5v-65h-280.5v70h-9.5c-78.57 49.68-131 138.466-131 238.5 0 155.156 125.344 280.5 280.5 280.5zM440 530l-28-4 42-281 28 4.5-42 280.5zM608.5 530l-42-280.5 27.5-4.5 42.5 281-28 4zM524.22 533.829l-43.41-43.41-46.48 34.64-16.663-22.362 56.127-42.095 9.647-7.455 40.78 40.78 40.78-40.78 9.647 7.455 56.127 42.095-16.663 22.362-46.48-34.64-43.41 43.41zM356 261.5v-112.5h336.5v112.5h-336.5zM384 233h280.5v-56h-280.5v56zM384 177v-112h280.5v112h-280.5zM412 149h224.5v-56h-224.5v56zM412 93v-112.5h224.5v112.5h-224.5zM440 65h168.5v-56.5h-168.5v56.5z" />
<glyph unicode="&#xe906;" glyph-name="social" d="M799.815 883.248c-100.577 0-182.412-81.835-182.412-182.412s81.835-182.412 182.412-182.412c100.577 0 182.412 81.835 182.412 182.412s-81.835 182.412-182.412 182.412zM799.815 855.184c85.41 0 154.348-68.938 154.348-154.348s-68.938-154.348-154.348-154.348c-85.41 0-154.348 68.938-154.348 154.348s68.938 154.348 154.348 154.348zM238.548 448.266c-85.078 0-154.348-69.27-154.348-154.348s69.27-154.348 154.348-154.348c85.078 0 154.348 69.27 154.348 154.348s-69.27 154.348-154.348 154.348zM238.548 420.203c69.911 0 126.285-56.373 126.285-126.285s-56.373-126.285-126.285-126.285c-69.911 0-126.285 56.373-126.285 126.285s56.373 126.285 126.285 126.285zM757.72 237.791c-69.579 0-126.285-56.706-126.285-126.285s56.706-126.285 126.285-126.285c69.579 0 126.285 56.706 126.285 126.285s-56.706 126.285-126.285 126.285zM757.72 209.728c54.413 0 98.222-43.809 98.222-98.222s-43.809-98.222-98.222-98.222c-54.413 0-98.222 43.809-98.222 98.222s43.809 98.222 98.222 98.222zM370 251l-10.5-26.5 280.5-112 10.5 26-280.5 112.5zM652 600.5l-309-196.5 15.5-24 308.5 196.5-15 24z" />
<glyph unicode="&#xe907;" glyph-name="link" d="M801.5 901c-34.681 0-66.719-11.633-92.5-31l-1-0.5-0.5-1-182.5-182.5c-27.017-27.582-46.031-65.517-46-108 0-21.945 4.709-43.086 13-62l25.5 11.5c-6.779 15.463-10.5 32.483-10.5 50.5-0.026 33.902 15.557 64.956 38 88v0.5l182 182c20.884 15.241 46.676 24 74.5 24 69.924 0.051 126.5-56.129 126.5-126 0.026-28.479-9.63-54.848-25.5-76l-167.5-167.5-0.5-1c-23.050-30.708-59.625-50.5-101-50.5-17.987-0.026-35.023 3.766-50.5 10.5l-11.5-25.5c18.901-8.224 40.081-13.031 62-13 49.63 0 93.791 23.975 122 60.5 0.433 0.561 1.075 0.933 1.5 1.5l167.5 167.5 0.5 1c19.377 25.826 31.031 57.836 31 92.5 0 85.066-69.402 154.562-154.5 154.5zM517.5 527.5l-25.5-11.5c0.74-1.689 1.353-3.799 2.5-6l25 13c-0.564 1.083-1.252 2.793-2 4.5zM381 479.5c-34.706 0-67.219-11.633-93-31l-0.5-0.5-1-0.5-182-182.5v-0.5c-27.017-27.582-46.031-65.542-46-108 0-85.092 68.931-154.062 154-154 49.756 0 93.802 23.835 122 60.5l0.5-0.5 1 1.5 168.5 168.5c19.377 25.826 30.531 58.336 30.5 93 0 21.92-4.24 42.617-12.5 61.5l-26-11c6.753-15.438 10.5-32.514 10.5-50.5 0.026-28.479-9.13-54.848-25-76l-168.5-168.5c-23.051-30.71-59.609-50.5-101-50.5-69.896-0.051-126 56.098-126 126-0.025 34.015 15.401 65.428 38 88.5l180.5 181c21.14 15.881 47.508 25.5 76 25.5 17.982 0 35.010-3.746 50.5-10.5l11 25.5c-18.944 8.26-39.632 13-61.5 13zM623.5 588l-252.5-253 20-19.5 252 252.5-19.5 20z" />
<glyph unicode="&#xe908;" glyph-name="hidden_eye" d="M528 656.5c-287.649 0-446.5-216.5-446.5-216.5l-6-8 6-8.5c0 0 158.851-216 446.5-216s446 216 446 216l6 8.5-6 8c0 0-158.351 216.5-446 216.5zM528 628c255.769 0 398.307-172.661 416.5-196-17.612-22.644-160.116-196.5-416.5-196.5-256.516 0-399.513 174.006-417 196.5 18.060 23.18 161.089 196 417 196zM527.827 543.888c-61.829 0-112.253-50.424-112.253-112.253s50.424-112.253 112.253-112.253c61.829 0 112.253 50.424 112.253 112.253s-50.424 112.253-112.253 112.253zM527.827 515.825c46.664 0 84.19-37.527 84.19-84.19s-37.526-84.19-84.19-84.19c-46.664 0-84.19 37.527-84.19 84.19s37.526 84.19 84.19 84.19zM840.5 764.5l-645.5-645.5 20-20 645.5 645.5-20 20z" />
<glyph unicode="&#xe909;" glyph-name="visible_eye" d="M515 644.5c-287.649 0-446.5-216.5-446.5-216.5l-6-8 6-8.5c0 0 158.851-216.5 446.5-216.5s446 216.5 446 216.5l6 8.5-6 8c0 0-158.351 216.5-446 216.5zM515 616c255.911 0 398.44-172.82 416.5-196-17.487-22.494-159.984-196.5-416.5-196.5s-399.513 174.006-417 196.5c18.060 23.18 161.089 196 417 196zM514.749 531.836c-61.829 0-112.253-50.424-112.253-112.253 0-61.831 50.424-112.253 112.253-112.253s112.253 50.423 112.253 112.253c0 61.829-50.424 112.253-112.253 112.253zM514.749 503.773c46.664 0 84.19-37.528 84.19-84.19 0-46.664-37.526-84.19-84.19-84.19s-84.19 37.526-84.19 84.19c0 46.662 37.526 84.19 84.19 84.19z" />
<glyph unicode="&#xe90a;" glyph-name="globe" d="M494 890v-28.5c193.245 0 365-171.255 365-364.5s-171.755-365-365-365c-68.287 0-111.528 13.514-137.5 26.5s-33.5 24-33.5 24l-22.5-16.5c0 0 13.345-17.422 43.5-32.5s77.971-29.5 150-29.5c209.716 0 393 183.284 393 393s-183.284 393-393 393zM494.016 791.403c-162.573 0-294.665-132.092-294.665-294.665s132.092-294.665 294.665-294.665c162.573 0 294.665 132.092 294.665 294.665s-132.092 294.665-294.665 294.665zM494.016 763.339c147.406 0 266.602-119.195 266.602-266.602s-119.195-266.602-266.602-266.602c-147.406 0-266.602 119.195-266.602 266.602s119.195 266.602 266.602 266.602zM480 132v-140h28v140h-28zM353.5 20v-28h281v28h-281z" />
<glyph unicode="&#xe90b;" glyph-name="pen2" d="M385 109v-112.5h280.5v112.5h-280.5zM413 81h224.5v-56.5h-224.5v56.5zM329 249v-168h392.5v168h-392.5zM357 221h336.5v-112h-336.5v112zM525.364 909.666l-12.278-22.363-224.507-406.918-3.946-6.577 3.946-6.577 96.468-179.342v-52.619h28.063v59.635l-1.754 3.069-94.714 175.396 208.721 377.978 208.721-377.978-94.714-175.396-1.754-3.069v-59.635h28.063v52.619l99.976 185.92-3.508 6.577-236.784 429.281zM525.364 559.752c-38.58 0-70.158-31.577-70.158-70.158s31.578-70.158 70.158-70.158c38.581 0 70.158 31.577 70.158 70.158s-31.577 70.158-70.158 70.158zM525.364 531.688c23.415 0 42.095-18.68 42.095-42.095s-18.68-42.095-42.095-42.095c-23.413 0-42.095 18.68-42.095 42.095s18.682 42.095 42.095 42.095zM511 880.5v-336.5h28.5v336.5h-28.5z" />
<glyph unicode="&#xe90c;" glyph-name="map_marker" d="M527.062 699.788c-38.581 0-70.158-31.577-70.158-70.158s31.577-70.158 70.158-70.158c38.581 0 70.158 31.577 70.158 70.158s-31.577 70.158-70.158 70.158zM527.062 671.725c23.415 0 42.095-18.68 42.095-42.095s-18.68-42.095-42.095-42.095c-23.415 0-42.095 18.68-42.095 42.095s18.68 42.095 42.095 42.095zM527 812c-108.948 0-196.5-95.258-196.5-211 0-76.37 46.944-167.602 93-242s92.5-131 92.5-131l10.5-13.5 11 13.5c0 0 46.215 56.597 92.5 131s93.828 166.052 93.5 242.5c-0.493 115.669-87.552 210.5-196.5 210.5zM527 784c92.602 0 168.067-81.235 168.5-183 0.275-64.192-43.781-154.812-89-227.5-39.854-64.064-70.589-101.897-79.5-113-8.757 10.978-39.763 48.81-79.5 113-45.003 72.696-89 163.245-89 227.5 0 101.693 75.898 183 168.5 183zM238.098 391.092l-3.946-7.454-165.749-301.242h917.32l-11.401 20.609-154.348 280.633-3.946 7.454h-134.616v-28.063h117.954l139.001-252.57h-822.606l139.001 252.57h117.954v28.063h-134.616z" />
<glyph unicode="&#xe90d;" glyph-name="rounded_pin" d="M523.699 884.115c-123.825 0-224.507-100.681-224.507-224.507s100.681-224.506 224.507-224.506c123.825 0 224.507 100.681 224.507 224.506s-100.681 224.507-224.507 224.507zM523.699 856.051c108.659 0 196.443-87.784 196.443-196.443s-87.784-196.444-196.443-196.443c-108.659 0-196.443 87.784-196.443 196.443s87.784 196.443 196.443 196.443zM523.5 813c-84.433 0-153-68.567-153-153h28c0 69.27 55.73 125 125 125v28zM509.5 449.5v-463h28v463h-28z" />
<glyph unicode="&#xe90e;" glyph-name="pin" d="M494.5 383.5v-393h28.5v393h-28.5zM354.389 888.448v-76.736l5.262-4.385 64.019-51.303-26.309-222.314-125.846-56.127-1.316-7.454-14.032-84.19-2.631-16.663h255.201v28.063h-221.876l10.085 60.512 119.269 53.057 7.454 3.508 0.877 7.893 28.94 245.993-6.139 4.823-64.896 51.742v35.518h126.285v28.063h-154.348zM508.738 888.448v-28.063h126.285v-35.518l-64.896-51.742-6.139-4.823 28.94-245.993 0.877-7.893 7.454-3.508 119.269-53.057 10.085-60.512h-221.876v-28.063h255.201l-2.631 16.663-14.032 84.19-1.316 7.454-7.016 3.069-118.831 53.057-26.309 222.314 64.019 51.303 5.262 4.385v76.736h-154.348z" />
<glyph unicode="&#xe90f;" glyph-name="photo" d="M427.416 757.754l-4.385-5.262-107.868-135.055h-245.993v-477.076h898.026v477.076h-245.993l-107.868 135.055-4.385 5.262h-181.535zM440.571 729.69h155.225l107.868-135.055 4.385-5.262h231.084v-420.95h-841.9v420.95h231.084l4.385 5.262 107.868 135.055zM518.183 505.184c-69.579 0-126.285-56.706-126.285-126.285 0-69.58 56.706-126.286 126.285-126.285s126.285 56.705 126.285 126.285c0 69.579-56.706 126.285-126.285 126.285zM518.183 477.12c54.413 0 98.222-43.81 98.222-98.222 0-54.413-43.809-98.222-98.222-98.222s-98.222 43.808-98.222 98.222c0 54.412 43.809 98.22 98.222 98.222zM181.5 603.5v-449h28v449h-28zM826.88 491.323v0z" />
<glyph unicode="&#xe910;" glyph-name="zoom_out" d="M235.5 611v-28h252.5v28h-252.5zM361.572 891.431c-162.573 0-294.665-132.093-294.665-294.665 0-162.574 132.092-294.665 294.665-294.665s294.665 132.091 294.665 294.665c0 162.572-132.092 294.665-294.665 294.665zM361.572 863.367c147.406 0 266.602-119.196 266.602-266.602 0-147.407-119.195-266.602-266.602-266.602s-266.602 119.195-266.602 266.602c0 147.405 119.195 266.602 266.602 266.602zM568 410.5l-20-20 84.5-84 19.5 19.5-84 84.5zM580.181 274.46l286.378-286.378 103.945 103.945-286.378 286.378-103.945-103.945zM619.779 274.46l64.347 64.347 246.78-246.78-64.347-64.347-246.78 246.78z" />
<glyph unicode="&#xe911;" glyph-name="zoom_in" d="M227 598.5v-28h252.5v28h-252.5zM339.5 711v-252.5h28v252.5h-28zM353.382 879.041c-162.573 0-294.665-132.093-294.665-294.665 0-162.574 132.092-294.665 294.665-294.665s294.665 132.091 294.665 294.665c0 162.572-132.093 294.665-294.665 294.665zM353.382 850.977c147.407 0 266.602-119.196 266.602-266.602 0-147.407-119.195-266.602-266.602-266.602s-266.602 119.195-266.602 266.602c0 147.405 119.195 266.602 266.602 266.602zM559.5 398l-19.5-20 84-84 20 20-84.5 84zM571.696 261.732l286.378-286.378 104.298 104.298-286.378 286.378-104.298-104.298zM611.647 262.086l64.347 64.347 246.78-246.78-64.347-64.347-246.78 246.78z" />
<glyph unicode="&#xe912;" glyph-name="map_point" d="M536.339 682.044c-54.080 0-98.222-44.142-98.222-98.222s44.141-98.222 98.222-98.222c54.080 0 98.222 44.142 98.222 98.222s-44.142 98.222-98.222 98.222zM536.339 653.98c38.914 0 70.158-31.245 70.158-70.158s-31.245-70.158-70.158-70.158c-38.914 0-70.158 31.245-70.158 70.158s31.245 70.158 70.158 70.158zM536.5 892.5c-170.614 0-309-143.239-309-319 0-115.316 75.404-257.146 149.5-372s148-202 148-202l10.5-12.5 11 12.5c0 0 74.533 87.139 149 202s150.005 256.61 149.5 372c-0.776 175.686-137.886 319-308.5 319zM536.5 864.5c154.921 0 279.788-129.814 280.5-291 0.449-102.62-71.651-243.364-145-356.5-64.676-99.759-121.584-168.768-136-186-14.165 17.037-71.021 86.052-135.5 186-72.991 113.142-145 253.806-145 356.5 0 161.111 126.079 291 281 291z" />
<glyph unicode="&#xe913;" glyph-name="cards" d="M556.802 854.745l-6.14-12.716-280.633-561.266-6.577-12.716 12.717-6.139 405.602-203.021 6.139 13.155 266.602 561.266 5.701 12.278-403.41 209.159zM569.517 816.596l353.862-183.289-254.763-536.273-367.454 183.727 268.356 535.834zM457.264 840.713l-403.848-209.159 5.7-12.278 252.57-547.235 6.139-12.716 12.717 5.7 182.412 85.067-11.84 25.432-169.696-79.367-241.168 522.679 354.299 183.727 48.232-99.537 25.434 12.278-54.812 112.253-6.139 13.155zM578.5 786l-14-28.5 25-12.5 14 28-25 13zM154.5 617.5l-25-12.5 14-28 25 12.5-14 28zM648.5 168.5l-14-28 25.5-12.5 14 28-25.5 12.5zM593 604.5c-11.265 0.731-22.332-0.841-33-4-21.336-6.319-40.97-19.492-51.5-39-23.593-43.747-10.555-99.147 5.5-144s37-80 37-80l4-7h7.5c0 0 40.713-1.095 86.5 7.5s99.322 26.141 123 70c9.621 17.839 14.652 39.836 13 61.5s-11.441 44.382-33 56c-18.194 9.812-40.345 14.020-62 12-8.058-0.752-15.913-3.509-23.5-6.5-1.772 26.219-15.912 51.24-40.5 64.5-10.312 5.562-21.735 8.269-33 9zM591 576.5c7.687-0.489 15.15-2.575 21.5-6 24.588-13.26 35.266-41.328 22.5-65l12.5-6.5 12-7c5.42 10.050 17.359 16.041 33 17.5s33.993-2.255 46.5-9c11.794-6.356 16.835-17.722 18-33s-3.063-33.138-10-46c-16.312-30.215-61.063-48.034-103.5-56-38.202-7.171-65.498-6.574-72-6.5-3.215 5.493-17.941 29.619-31.5 67.5-14.983 41.86-22.87 91.646-6.5 122 6.042 11.193 19.2 20.969 34.5 25.5 7.65 2.266 15.313 2.989 23 2.5z" />
<glyph unicode="&#xe914;" glyph-name="plane" d="M927.24 890.294l-869.963-406.918v-24.993l308.697-154.348 16.225 2.63 561.266 561.266-16.225 22.364zM866.291 830.66l-497.248-497.247-273.178 136.809 770.427 360.438zM923.293 887.664l-561.266-561.266-2.63-16.225 154.348-308.697 25.431 0.439 406.918 869.963-22.801 15.786zM886.899 811.366l-360.876-771.304-136.809 273.617 497.685 497.686z" />
<glyph unicode="&#xe915;" glyph-name="letter" d="M577 769v-28h126v28h-126zM338.5 656.5v-28h364.5v28h-364.5zM338.5 544.5v-28h364.5v28h-364.5zM93.236 528.406l-14.909-24.118 442.435-277.125 7.455 4.385 434.981 272.74-14.909 24.118-427.528-267.918-427.526 267.918zM225.222 590.232l-144.703-60.951-8.77-3.508v-542.848h898.026v542.848l-8.77 3.508-144.7 60.951-10.963-25.872 136.37-57.441v-495.931h-841.9v495.931l136.371 57.441-10.962 25.872zM212.066 880.952v-449.013h28.063v420.95h561.266v-420.95h28.063v449.013h-617.393z" />
<glyph unicode="&#xe916;" glyph-name="picker" d="M767 773.5l-4-4c0 0-28.717-28.362-45-45l-134-134 19.5-20 134.5 134.5c14.129 14.437 34.757 34.31 40 39.5 18.324-1.607 38.412-11.407 54-27 15.671-15.675 24.981-35.615 26.5-54l-174-174 20-20 134.5 134.5 44.5 45 4.5 4v6c0 29.426-15.294 57.289-36.5 78.5s-49.053 36-78.5 36h-6zM547.654 644.277l-64.7-64.7 210.364-210.364 64.7 64.7-210.364 210.364zM547.654 604.679l170.766-170.766-24.749-24.749-170.766 170.766 24.749 24.749zM538.734 533.796l-339.829-362.192v-21.924l-29.379-29.817-10.086-10.085 10.086-9.647 44.726-44.726 9.647-10.085 10.086 9.647 29.817 29.817h21.923l3.947 3.508 358.247 336.321-18.856 20.609-354.299-332.375h-22.801l-4.385-4.385-23.678-23.24-24.555 24.555 23.239 23.678 4.386 4.385v22.801l332.374 354.299-20.608 18.855z" />
<glyph unicode="&#xe917;" glyph-name="heart" d="M278.5 825.5c-134.304 0-224.5-115.473-224.5-238.5 0-147.566 112.521-283.164 222.5-382.5s219.5-163 219.5-163l7-4 7 4c0 0 110.021 63.664 220 163s222 234.934 222 382.5c0 123.027-90.196 238.5-224.5 238.5-98.289 0-191.031-55.44-224.5-141.5-33.491 86.023-126.236 141.5-224.5 141.5zM278.5 797.5c109.8 0 210.5-74.959 210.5-182.5h28c0 107.541 100.7 182.5 210.5 182.5 118.266 0 196.5-101.022 196.5-210.5 0-133.067-104.988-264.392-212.5-361.5-101.941-92.076-198.2-148.927-208.5-155-10.35 6.103-106.088 62.95-208 155-107.512 97.108-213 228.433-213 361.5 0 109.478 78.234 210.5 196.5 210.5z" />
<glyph unicode="&#xe918;" glyph-name="cv" d="M393.873 883.621l-4.385-3.946-200.39-200.39v-693.69h673.52v898.026h-468.745zM405.274 855.558h429.281v-841.9h-617.393v653.788l188.112 188.112zM385.542 869.59v-182.412h-182.412v-28.063h210.475v210.475h-28.063zM525.859 701.21v-28.063h196.443v28.063h-196.443zM329.415 560.893v-28.063h392.887v28.063h-392.887zM329.415 420.577v-28.063h392.887v28.063h-392.887zM329.415 280.26v-28.063h392.887v28.063h-392.887zM329.415 139.943v-28.063h392.887v28.063h-392.887z" />
<glyph unicode="&#xe919;" glyph-name="toolbox" d="M79.451 658.952v-533.203h898.026v533.203h-898.026zM107.515 630.888h841.9v-477.076h-841.9v477.076zM93.5 490.5v-28h870v28h-870zM444.274 476.54v-98.222h168.38v98.222h-28.063v-70.158h-112.253v70.158zM528.5 771c-67.3 0-105.255-31.453-123-63s-17.5-63-17.5-63h28c0 0 0.174 24.42 14 49s39.515 49 98.5 49c58.985 0 84.174-24.42 98-49s14-49 14-49h28c0 0 0.245 31.453-17.5 63s-55.2 63-122.5 63z" />
<glyph unicode="&#xe91a;" glyph-name="pen" d="M796.47 900.346l-616.077-616.955-126.285-252.57-4.386-9.208 28.503-28.502 8.77 4.823 254.763 127.162 614.761 614.762-9.645 10.085-150.403 150.402zM796.47 860.443l120.146-120.146-591.961-592.399-240.292-120.146 120.585 241.169 591.522 591.522zM680 764l-20-20 140.5-140 20 19.5-140.5 140.5zM736 820l-19.5-20 140-140 20 19.5-140.5 140.5zM126.458 150.090l-7.016-27.186 48.234-11.839 11.839-48.234 27.188 7.016-14.032 56.127-2.193 8.331-7.893 1.754-56.127 14.032z" />
<glyph unicode="&#xe91b;" glyph-name="tools" d="M578 419l-20.5-20.5 72.5-72.5 20.5 20.5-72.5 72.5zM575.938 292.845l296.631-296.631 107.48 107.48-296.631 296.631-107.48-107.48zM617.304 292.491l66.468 66.468 255.266-255.265-66.468-66.468-255.266 255.266zM158.678 863.049l-37.229-37.227-7.717-8.172 5.901-9.533 96.701-161.168 113.498 113.498-16.344 9.535-145.277 87.166-9.533 5.901zM163.216 826.277l119.4-71.732-60.835-60.833-71.731 119.399 13.165 13.166zM273 724l-20.5-20.5 188.5-189 21 21-189 188.5zM764 858c-75.030 0-124.813-18.566-155.5-49s-41-70.759-41-109.5v-52.5l-485-492-1-3.5-25.5-87.5-2.5-8.5 6.5-6 31-29 6-5.5 7.5 2 92 22.5 3 3 490.5 482.5h52c38.734 0 79.338 9.836 110 40.5s50 80.44 50 155.5v23l-21-9.5-106.5-50-44.5 45 47 108.5 9 20h-22zM740 826l-40.5-93.5-3.5-9 6.5-7 58-60 7.5-7.5 101.5 48c-4.019-53.41-17.55-90.549-38-111-23.814-23.815-55.61-32-89.5-32h-64l-4-4-492-484-77-19-18.5 17.5 22 75 488.5 496v64c0 33.898 8.208 65.405 32 89 20.437 20.268 57.533 33.531 111 37.5z" />
<glyph unicode="&#xe91c;" glyph-name="design" d="M65.896 907.007v-913.839h913.397l-23.93 24.374-889.467 889.465zM94.26 838.315l816.785-816.783h-816.785v816.783zM250.26 509.916v-389.112h388.67l-23.93 24.374-364.739 364.738zM278.623 441.224l292.058-292.056h-292.058v292.056zM94.5 603v-28h85v28h-85zM94.5 489.5v-28h56.5v28h-56.5zM94.5 376v-28h85v28h-85zM94.5 263v-28.5h56.5v28.5h-56.5zM94.5 149.5v-28.5h85v28.5h-85zM420.442 907.007l-95.285-95.283-9.749-10.192 523.397-523.398 140.045-35.011-34.124 136.5-0.888 3.988-523.397 523.397zM420.442 866.679l497.694-497.692 21.715-86.864-86.421 21.715-497.692 498.136 64.705 64.705zM495.5 811.5l-85-85 20-20 85 85-20 20z" />
<glyph unicode="&#xe91d;" glyph-name="cup" d="M246.5 826.5v-432c0-42.658 29.648-79.638 77-104.5s113.55-39.5 195-39.5c81.45 0 147.648 14.638 195 39.5s77 61.842 77 104.5v432h-544zM278.5 794.5h480v-400c0-28.030-19.116-55.034-60-76.5s-102.394-35.5-180-35.5c-77.606 0-139.616 14.034-180.5 35.5s-59.5 48.47-59.5 76.5v400zM326.5 73v-32h384v32h-384zM507.5 250.5v-202h21.5v202h-21.5zM102.5 730.5v-16c0 0-0.408-39.184 19.5-79s63.167-81 140.5-81v32c-66.667 0-95.908 30.816-112 63-9.814 19.629-12.943 36.534-14.5 49h126.5v32h-160zM774.5 730.5v-32h126.5c-1.557-12.466-5.186-29.371-15-49-16.092-32.184-44.833-63-111.5-63v-32c77.333 0 120.092 41.184 140 81s20 79 20 79v16h-160z" />
</font>
</defs>
</svg>
