<?xml version="1.0" encoding="UTF-8" standalone="no"?>
<!-- Generator: Adobe Illustrator 19.2.1, SVG Export Plug-In  -->

<svg
   xmlns:dc="http://purl.org/dc/elements/1.1/"
   xmlns:cc="http://creativecommons.org/ns#"
   xmlns:rdf="http://www.w3.org/1999/02/22-rdf-syntax-ns#"
   xmlns:svg="http://www.w3.org/2000/svg"
   xmlns="http://www.w3.org/2000/svg"
   xmlns:sodipodi="http://sodipodi.sourceforge.net/DTD/sodipodi-0.dtd"
   xmlns:inkscape="http://www.inkscape.org/namespaces/inkscape"
   version="1.1"
   x="0px"
   y="0px"
   width="45.2px"
   height="37.9px"
   viewBox="0 0 45.2 37.9"
   style="enable-background:new 0 0 45.2 37.9;"
   xml:space="preserve"
   id="svg39920"
   inkscape:version="0.48.4 r9939"
   sodipodi:docname="arrow_right.svg"><metadata
     id="metadata39934"><rdf:RDF><cc:Work
         rdf:about=""><dc:format>image/svg+xml</dc:format><dc:type
           rdf:resource="http://purl.org/dc/dcmitype/StillImage" /><dc:title></dc:title></cc:Work></rdf:RDF></metadata><sodipodi:namedview
     pagecolor="#ffffff"
     bordercolor="#666666"
     borderopacity="1"
     objecttolerance="10"
     gridtolerance="10"
     guidetolerance="10"
     inkscape:pageopacity="0"
     inkscape:pageshadow="2"
     inkscape:window-width="1280"
     inkscape:window-height="748"
     id="namedview39932"
     showgrid="false"
     inkscape:zoom="10.541301"
     inkscape:cx="25.598393"
     inkscape:cy="21.869334"
     inkscape:window-x="0"
     inkscape:window-y="0"
     inkscape:window-maximized="1"
     inkscape:current-layer="svg39920" /><style
     type="text/css"
     id="style39922">
	.st0{fill:#DAA25A;}
</style><defs
     id="defs39924" /><path
     class="st0"
     d="m 21.581654,27.669097 c 0,-0.09399 0,-0.28197 0.09399,-0.375961 L 38.969848,9.9989317 c 0.187981,-0.18798 0.469951,-0.18798 0.657932,0 0.18798,0.1879813 0.18798,0.4699513 0,0.6579323 L 22.333577,27.951068 c -0.187982,0.18798 -0.469951,0.18798 -0.657933,0 -0.09399,-0.09399 -0.09399,-0.187981 -0.09399,-0.281971 z"
     id="path39928"
     inkscape:connector-curvature="0"
     style="fill:#47dbb4;fill-opacity:1" /><path
     class="st0"
     d="m 4.1934607,10.374893 c 0,-0.09399 0,-0.281971 0.09399,-0.3759613 0.187979,-0.18798 0.469951,-0.18798 0.65793,0 L 22.239587,27.293136 c 0.187979,0.187981 0.187979,0.469951 0,0.657932 -0.187982,0.18798 -0.469951,0.18798 -0.657933,0 L 4.3814407,10.656864 c -0.09399,-0.09399 -0.18798,-0.187981 -0.18798,-0.281971 z"
     id="path39930"
     inkscape:connector-curvature="0"
     style="fill:#47dbb4;fill-opacity:1" /></svg>