<?xml version="1.0" encoding="UTF-8" standalone="no"?>
<!-- Generator: Adobe Illustrator 19.2.1, SVG Export Plug-In  -->

<svg
   xmlns:dc="http://purl.org/dc/elements/1.1/"
   xmlns:cc="http://creativecommons.org/ns#"
   xmlns:rdf="http://www.w3.org/1999/02/22-rdf-syntax-ns#"
   xmlns:svg="http://www.w3.org/2000/svg"
   xmlns="http://www.w3.org/2000/svg"
   xmlns:sodipodi="http://sodipodi.sourceforge.net/DTD/sodipodi-0.dtd"
   xmlns:inkscape="http://www.inkscape.org/namespaces/inkscape"
   version="1.1"
   x="0px"
   y="0px"
   width="45.2px"
   height="37.9px"
   viewBox="0 0 45.2 37.9"
   style="enable-background:new 0 0 45.2 37.9;"
   xml:space="preserve"
   id="svg39920"
   inkscape:version="0.48.4 r9939"
   sodipodi:docname="back.svg"><metadata
     id="metadata39934"><rdf:RDF><cc:Work
         rdf:about=""><dc:format>image/svg+xml</dc:format><dc:type
           rdf:resource="http://purl.org/dc/dcmitype/StillImage" /><dc:title></dc:title></cc:Work></rdf:RDF></metadata><sodipodi:namedview
     pagecolor="#ffffff"
     bordercolor="#666666"
     borderopacity="1"
     objecttolerance="10"
     gridtolerance="10"
     guidetolerance="10"
     inkscape:pageopacity="0"
     inkscape:pageshadow="2"
     inkscape:window-width="1280"
     inkscape:window-height="748"
     id="namedview39932"
     showgrid="false"
     inkscape:zoom="14.907651"
     inkscape:cx="11.867257"
     inkscape:cy="13.957998"
     inkscape:window-x="0"
     inkscape:window-y="0"
     inkscape:window-maximized="1"
     inkscape:current-layer="svg39920" /><style
     type="text/css"
     id="style39922">
	.st0{fill:#DAA25A;}
</style><defs
     id="defs39924" /><path
     class="st0"
     d="m 35.466849,18.668399 c 0.1752,0 0.292001,0.1168 0.292001,0.292001 0,0.175201 -0.116801,0.292001 -0.292001,0.292001 l -25.112095,0 0,0 c -0.1752,0 -0.292001,-0.1168 -0.292001,-0.292001 0,-0.175201 0.116801,-0.292001 0.292001,-0.292001 l 25.112095,0 0,0 z"
     id="path39926"
     inkscape:connector-curvature="0"
     style="fill:#47dbb4;fill-opacity:1" /><path
     class="st0"
     d="m 9.6539516,18.726799 c 0.0584,0 0.1752007,0 0.2336009,0.0584 L 20.633193,29.530839 c 0.1168,0.116801 0.1168,0.292001 0,0.408802 -0.116801,0.1168 -0.292001,0.1168 -0.408802,0 L 9.478751,19.194001 c -0.1168004,-0.116801 -0.1168004,-0.292001 0,-0.408802 0.0584,-0.0584 0.1168004,-0.0584 0.1752006,-0.0584 z"
     id="path39928"
     inkscape:connector-curvature="0"
     style="fill:#47dbb4;fill-opacity:1" /><path
     class="st0"
     d="m 20.399592,7.9227586 c 0.0584,0 0.175201,0 0.233601,0.0584 0.1168,0.1168005 0.1168,0.2920011 0,0.4088016 L 9.8875525,19.135601 c -0.1168004,0.1168 -0.2920011,0.1168 -0.4088015,0 -0.1168004,-0.116801 -0.1168004,-0.292001 0,-0.408802 l 10.74564,-10.68724 c 0.0584,-0.0584 0.116801,-0.1168004 0.175201,-0.1168004 z"
     id="path39930"
     inkscape:connector-curvature="0"
     style="fill:#47dbb4;fill-opacity:1" /></svg>