<?xml version="1.0" encoding="UTF-8" standalone="no"?>
<svg
   xmlns:dc="http://purl.org/dc/elements/1.1/"
   xmlns:cc="http://creativecommons.org/ns#"
   xmlns:rdf="http://www.w3.org/1999/02/22-rdf-syntax-ns#"
   xmlns:svg="http://www.w3.org/2000/svg"
   xmlns="http://www.w3.org/2000/svg"
   xmlns:sodipodi="http://sodipodi.sourceforge.net/DTD/sodipodi-0.dtd"
   xmlns:inkscape="http://www.inkscape.org/namespaces/inkscape"
   version="1.1"
   id="Layer_1"
   width="28.385"
   height="28.385"
   viewBox="0 0 28.385 28.385"
   overflow="visible"
   enable-background="new 0 0 28.385 28.385"
   xml:space="preserve"
   inkscape:version="0.48.4 r9939"
   sodipodi:docname="behance.svg"><metadata
     id="metadata24574"><rdf:RDF><cc:Work
         rdf:about=""><dc:format>image/svg+xml</dc:format><dc:type
           rdf:resource="http://purl.org/dc/dcmitype/StillImage" /></cc:Work></rdf:RDF></metadata><defs
     id="defs24572" /><sodipodi:namedview
     pagecolor="#ffffff"
     bordercolor="#666666"
     borderopacity="1"
     objecttolerance="10"
     gridtolerance="10"
     guidetolerance="10"
     inkscape:pageopacity="0"
     inkscape:pageshadow="2"
     inkscape:window-width="1280"
     inkscape:window-height="748"
     id="namedview24570"
     showgrid="false"
     inkscape:zoom="8.3142504"
     inkscape:cx="20.5596"
     inkscape:cy="23.133055"
     inkscape:window-x="0"
     inkscape:window-y="0"
     inkscape:window-maximized="1"
     inkscape:current-layer="Layer_1" /><path
     style="fill:#47dbb4"
     inkscape:connector-curvature="0"
     id="path24564"
     d="m 13.814551,17.464 c -0.151,0.271 -0.342,0.506 -0.571,0.693 -0.258,0.216 -0.563,0.363 -0.912,0.443 -0.353,0.08 -0.732,0.118 -1.143,0.118 H 7.5465508 V 9.881 h 3.9060002 c 0.984,0.018 1.682,0.33 2.096,0.941 0.245,0.377 0.368,0.827 0.368,1.35 0,0.54 -0.124,0.973 -0.374,1.303 -0.139,0.184 -0.344,0.35 -0.615,0.503 0.412,0.163 0.724,0.422 0.931,0.78 0.212,0.355 0.317,0.787 0.317,1.293 0,0.524 -0.119,0.996 -0.361,1.413" /><rect
     style="fill:#47dbb4"
     id="rect24566"
     height="1.473"
     width="2.9449999"
     y="9.8809996"
     x="16.385551" /><path
     style="fill:#47dbb4"
     inkscape:connector-curvature="0"
     id="path24568"
     d="m 20.802551,15.774 h -4.054 c 0.021,0.736 0.216,1.1 0.58,1.352 0.221,0.157 0.489,0.252 0.801,0.252 0.333,0 0.604,-0.171 0.81,-0.362 0.113,-0.103 0.215,0.048 0.302,-0.505 h 1.484 c -0.04,0.553 -0.219,0.831 -0.539,1.215 -0.499,0.604 -1.197,0.953 -2.095,0.953 -0.741,0 -1.396,-0.236 -1.962,-0.748 -0.566,-0.514 -0.85,-1.338 -0.85,-2.492 0,-1.082 0.253,-1.908 0.765,-2.484 0.515,-0.578 1.179,-0.865 1.995,-0.865 0.483,0 0.919,0.101 1.31,0.295 0.388,0.195 0.707,0.504 0.961,0.926 0.228,0.371 0.375,0.768 0.443,1.256 0.039,0.287 0.055,1.209 0.055,1.209" /><path
     d="m 14.177909,0.03536715 c -7.8225474,0 -14.16442947,6.34089105 -14.16442947,14.16442885 0,7.822547 6.34188207,14.164429 14.16442947,14.164429 7.822546,0 14.164428,-6.341882 14.164428,-14.164429 0,-7.8235378 -6.341882,-14.16442885 -14.164428,-14.16442885 z M 14.17107,27.738051 c -7.4646661,0 -13.51753808,-6.048522 -13.51753808,-13.515364 0,-7.4646661 6.05178478,-13.51753821 13.51753808,-13.51753821 7.462492,0 13.515364,6.05178491 13.515364,13.51753821 0,7.466842 -6.052872,13.515364 -13.515364,13.515364 z"
     id="path24511"
     inkscape:connector-curvature="0"
     style="fill:#47dbb4"
     sodipodi:nodetypes="ssssssssss" /></svg>