<?xml version="1.0" encoding="UTF-8" standalone="no"?>
<svg
   xmlns:dc="http://purl.org/dc/elements/1.1/"
   xmlns:cc="http://creativecommons.org/ns#"
   xmlns:rdf="http://www.w3.org/1999/02/22-rdf-syntax-ns#"
   xmlns:svg="http://www.w3.org/2000/svg"
   xmlns="http://www.w3.org/2000/svg"
   xmlns:sodipodi="http://sodipodi.sourceforge.net/DTD/sodipodi-0.dtd"
   xmlns:inkscape="http://www.inkscape.org/namespaces/inkscape"
   version="1.1"
   id="Layer_1"
   width="28.566"
   height="28.565"
   viewBox="0 0 28.566 28.565"
   overflow="visible"
   enable-background="new 0 0 28.566 28.565"
   xml:space="preserve"
   inkscape:version="0.48.4 r9939"
   sodipodi:docname="github.svg"><metadata
     id="metadata24553"><rdf:RDF><cc:Work
         rdf:about=""><dc:format>image/svg+xml</dc:format><dc:type
           rdf:resource="http://purl.org/dc/dcmitype/StillImage" /></cc:Work></rdf:RDF></metadata><defs
     id="defs24551" /><sodipodi:namedview
     pagecolor="#ffffff"
     bordercolor="#666666"
     borderopacity="1"
     objecttolerance="10"
     gridtolerance="10"
     guidetolerance="10"
     inkscape:pageopacity="0"
     inkscape:pageshadow="2"
     inkscape:window-width="1280"
     inkscape:window-height="748"
     id="namedview24549"
     showgrid="false"
     inkscape:zoom="5.8420164"
     inkscape:cx="79.187035"
     inkscape:cy="5.0351518"
     inkscape:window-x="0"
     inkscape:window-y="0"
     inkscape:window-maximized="1"
     inkscape:current-layer="Layer_1" /><g
     id="g24545"><path
       d="m 16.521,19.758 c 2.783,-0.326 5.744,-1.34 5.744,-6.145 0,-1.367 -0.481,-2.48 -1.266,-3.342 0.126,-0.33 0.532,-1.568 -0.151,-3.287 0,0 -1.012,-0.33 -3.391,1.262 -1.012,-0.277 -2.126,-0.453 -3.162,-0.453 -1.063,0 -2.176,0.176 -3.164,0.453 C 8.729,6.655 7.717,6.985 7.717,6.985 7.034,8.704 7.439,9.942 7.565,10.272 6.78,11.131 6.3,12.247 6.3,13.614 c 0,4.805 2.96,5.818 5.743,6.145 -0.354,0.305 -0.683,0.889 -0.81,1.699 -0.709,0.301 -2.555,0.883 -3.669,-1.039 0,0 -0.657,-1.188 -1.896,-1.264 0,0 -1.24,-0.025 -0.102,0.756 0,0 0.835,0.383 1.392,1.822 0,0 0.759,2.404 4.25,1.645 l 0,2.15 c 0,0.33 0.02648,2.075833 -1.237848,1.694587 -5.4030401,-1.792664 -9.28678155,-6.917983 -9.28678155,-12.924386 0,-7.5213454 6.09026415,-13.61378778 13.61378755,-13.61378778 7.496297,0 13.612699,6.09244238 13.585472,13.61378778 0,6.007492 -3.88592,11.105584 -9.285693,12.924386 C 17.362863,27.631061 17.357,25.883 17.357,25.528 l 0,-3.465 c -10e-4,-1.166 -0.38,-1.924 -0.836,-2.305 z M 28.566,14.295 C 28.566,6.401 22.164,0 14.296,0 6.401,0 0,6.401 0,14.295 c 0,7.869 6.401,14.27 14.296,14.27 7.868,0 14.27,-6.4 14.27,-14.27 z"
       id="path24547"
       inkscape:connector-curvature="0"
       style="fill:#47dbb4"
       sodipodi:nodetypes="cscccscccscccccccscssccsccscsss" /></g></svg>