<svg xmlns="http://www.w3.org/2000/svg" xmlns:xlink="http://www.w3.org/1999/xlink" version="1.1" x="0px" y="0px" viewBox="0 0 100 125" enable-background="new 0 0 100 100" xml:space="preserve"><path d="M25.854,59.305c0.011,0.01,12.697,13.691,12.705,13.699c4.134,4.132,9.627,6.406,15.47,6.406  c12.07,0,21.891-9.819,21.891-21.89V36.649c0-3.341-2.719-6.06-6.059-6.06c-0.869,0-1.693,0.188-2.441,0.518v-0.46  c0-3.341-2.719-6.058-6.059-6.058c-0.941,0-1.83,0.222-2.625,0.606c-0.652-2.641-3.035-4.606-5.875-4.606  c-3.162,0-5.763,2.438-6.031,5.531c-0.755-0.339-1.589-0.531-2.469-0.531c-3.341,0-6.058,2.719-6.058,6.06v20.282l-4.366-2.131  c-3.056-1.49-6.003-1.148-8.083,0.935C23.492,53.098,23.492,56.941,25.854,59.305z M28.412,53.291  c1.199-1.201,2.806-0.793,3.939-0.241l5.951,2.906v2.531c0,0.998,0.81,1.808,1.808,1.808s1.808-0.81,1.808-1.808v-3.562  c0-0.001,0-0.002,0-0.003V31.649c0-1.348,1.096-2.444,2.442-2.444s2.442,1.097,2.442,2.444v20.178c0,0.998,0.81,1.808,1.808,1.808  s1.809-0.81,1.809-1.808v-25.18c0-1.347,1.095-2.442,2.441-2.442s2.441,1.096,2.441,2.442v25.18c0,0.998,0.811,1.808,1.809,1.808  s1.809-0.81,1.809-1.808v-21.18c0-1.347,1.095-2.442,2.441-2.442s2.441,1.096,2.441,2.442v21.18c0,0.998,0.811,1.808,1.809,1.808  s1.809-0.81,1.809-1.808V36.649c0-1.348,1.095-2.444,2.441-2.444s2.441,1.097,2.441,2.444v20.871  c0,10.076-8.197,18.274-18.273,18.274c-4.869,0-9.448-1.895-12.896-5.333l-12.78-13.775C27.459,55.729,27.479,54.224,28.412,53.291z  "/><text x="0" y="115" fill="#000000" font-size="5px" font-weight="bold" font-family="'Helvetica Neue', Helvetica, Arial-Unicode, Arial, Sans-serif">Created by Sergey Demushkin</text><text x="0" y="120" fill="#000000" font-size="5px" font-weight="bold" font-family="'Helvetica Neue', Helvetica, Arial-Unicode, Arial, Sans-serif">from the Noun Project</text></svg>